M48
INCH,TZ
T1C0.012
T2C0.016
T3C0.030
T4C0.039
T5C0.040
%
G90
G05
T1
X58800Y-39000
X58800Y-39700
X58800Y-40500
X58800Y-41200
X58875Y-34525
X59200Y-32550
X59425Y-39025
X59600Y-39725
X59600Y-40500
X59600Y-41200
X59950Y-34900
X60375Y-40250
X60425Y-38800
X60550Y-32550
X60900Y-34200
X61000Y-34900
X61625Y-37925
X61900Y-34900
X62000Y-38700
X62650Y-38000
X62800Y-35550
X63125Y-38475
X63250Y-36500
X63350Y-35000
X63450Y-40350
X63750Y-37250
X64200Y-32750
X64200Y-33550
X64250Y-36500
X64450Y-34900
X64500Y-35750
X64500Y-39050
X65000Y-36500
X65200Y-38050
X65225Y-39675
X65500Y-35750
X65550Y-34150
X65550Y-34900
X65750Y-37250
X65825Y-39050
X66300Y-39675
X66350Y-33750
X66450Y-40350
X66700Y-34600
X66900Y-39025
X67250Y-34050
X67350Y-39675
X67600Y-35450
X68000Y-39025
X68250Y-34300
X68375Y-39675
X68500Y-40350
X68600Y-33700
X69225Y-39025
X69400Y-34150
X69500Y-39675
X69500Y-40350
X70050Y-33600
X70050Y-34150
X70350Y-35550
X70600Y-38200
X70600Y-39050
X70600Y-40000
X71300Y-34325
X71300Y-39450
X71600Y-35550
X71600Y-37450
X71700Y-38350
X72100Y-33650
X72100Y-34325
X72250Y-36500
X72375Y-40250
X72450Y-38950
X72600Y-35550
X72925Y-37325
X73175Y-34400
X73200Y-38275
X73200Y-39400
X73575Y-35975
X73600Y-33700
X74175Y-34325
X74275Y-40000
X74325Y-36250
X74350Y-36775
X74350Y-37450
X74400Y-38250
X74500Y-39000
X75050Y-33800
X75150Y-36750
X75150Y-37450
X75150Y-38250
X75175Y-40000
X75400Y-39000
X75600Y-35750
X75825Y-33800
X75850Y-34550
X75850Y-38250
X75900Y-37450
X76200Y-39000
X76200Y-40000
X76550Y-35700
X76550Y-36400
X76550Y-37450
X76550Y-38250
X76575Y-33800
X77100Y-39000
X77150Y-40000
X77150Y-40750
X77300Y-33700
X77325Y-32850
X78050Y-40000
X78050Y-40800
X78200Y-32850
X78200Y-33650
X78250Y-39150
X78350Y-37100
T2
X66700Y-37300
X68700Y-36500
X69650Y-37000
X70200Y-38000
X72300Y-38500
T3
X59100Y-35900
X59100Y-36400
X59100Y-36900
X59100Y-37400
X59100Y-37900
X59600Y-35900
X59600Y-36400
X59600Y-36900
X59600Y-37400
X59600Y-37900
X77200Y-35900
X77200Y-36400
X77200Y-36900
X77200Y-37400
X77200Y-37900
X77700Y-35900
X77700Y-36400
X77700Y-36900
X77700Y-37400
X77700Y-37900
T4
X60965Y-40840
X61965Y-40840
X62965Y-40840
X63965Y-40840
X64965Y-32840
X64965Y-40840
X65965Y-32840
X65965Y-40840
X66965Y-32840
X66965Y-40840
X67965Y-32840
X67965Y-40840
X68965Y-32840
X68965Y-40840
X69965Y-32840
X69965Y-40840
X70965Y-32840
X70965Y-40840
X71965Y-32840
X71965Y-40840
X72965Y-32840
X72965Y-40840
X73965Y-32840
X73965Y-40840
X74965Y-32840
X74965Y-40840
X75965Y-32840
X75965Y-40840
T5
X59250Y-33300
X60037Y-33300
T0
M30
