G04 #@! TF.FileFunction,Legend,Bot*
%FSLAX46Y46*%
G04 Gerber Fmt 4.6, Leading zero omitted, Abs format (unit mm)*
G04 Created by KiCad (PCBNEW 4.0.3-stable) date 10/04/17 18:30:16*
%MOMM*%
%LPD*%
G01*
G04 APERTURE LIST*
%ADD10C,0.152400*%
%ADD11C,0.025400*%
%ADD12C,0.127000*%
%ADD13C,0.120000*%
%ADD14C,0.150000*%
G04 APERTURE END LIST*
D10*
D11*
X200025000Y-81915000D02*
X147955000Y-81915000D01*
X200025000Y-105410000D02*
X200025000Y-81915000D01*
X147955000Y-105410000D02*
X200025000Y-105410000D01*
X147955000Y-81915000D02*
X147955000Y-105410000D01*
D12*
X191458548Y-88685310D02*
X191458548Y-88346643D01*
X191458548Y-88395024D02*
X191434357Y-88370833D01*
X191385976Y-88346643D01*
X191313405Y-88346643D01*
X191265024Y-88370833D01*
X191240833Y-88419214D01*
X191240833Y-88685310D01*
X191240833Y-88419214D02*
X191216643Y-88370833D01*
X191168262Y-88346643D01*
X191095690Y-88346643D01*
X191047310Y-88370833D01*
X191023119Y-88419214D01*
X191023119Y-88685310D01*
X190853786Y-88177310D02*
X190563500Y-88177310D01*
X190708643Y-88685310D02*
X190708643Y-88177310D01*
X190394167Y-88685310D02*
X190394167Y-88177310D01*
X190273214Y-88177310D01*
X190200643Y-88201500D01*
X190152262Y-88249881D01*
X190128071Y-88298262D01*
X190103881Y-88395024D01*
X190103881Y-88467595D01*
X190128071Y-88564357D01*
X190152262Y-88612738D01*
X190200643Y-88661119D01*
X190273214Y-88685310D01*
X190394167Y-88685310D01*
X189910357Y-88661119D02*
X189837786Y-88685310D01*
X189716833Y-88685310D01*
X189668452Y-88661119D01*
X189644262Y-88636929D01*
X189620071Y-88588548D01*
X189620071Y-88540167D01*
X189644262Y-88491786D01*
X189668452Y-88467595D01*
X189716833Y-88443405D01*
X189813595Y-88419214D01*
X189861976Y-88395024D01*
X189886167Y-88370833D01*
X189910357Y-88322452D01*
X189910357Y-88274071D01*
X189886167Y-88225690D01*
X189861976Y-88201500D01*
X189813595Y-88177310D01*
X189692643Y-88177310D01*
X189620071Y-88201500D01*
X189523309Y-88733690D02*
X189136261Y-88733690D01*
X189015309Y-88346643D02*
X189015309Y-88685310D01*
X189015309Y-88395024D02*
X188991118Y-88370833D01*
X188942737Y-88346643D01*
X188870166Y-88346643D01*
X188821785Y-88370833D01*
X188797594Y-88419214D01*
X188797594Y-88685310D01*
X188265404Y-88685310D02*
X188434737Y-88443405D01*
X188555690Y-88685310D02*
X188555690Y-88177310D01*
X188362166Y-88177310D01*
X188313785Y-88201500D01*
X188289594Y-88225690D01*
X188265404Y-88274071D01*
X188265404Y-88346643D01*
X188289594Y-88395024D01*
X188313785Y-88419214D01*
X188362166Y-88443405D01*
X188555690Y-88443405D01*
X187878356Y-88419214D02*
X188047690Y-88419214D01*
X188047690Y-88685310D02*
X188047690Y-88177310D01*
X187805785Y-88177310D01*
X187370356Y-88177310D02*
X187612261Y-88177310D01*
X187636451Y-88419214D01*
X187612261Y-88395024D01*
X187563880Y-88370833D01*
X187442927Y-88370833D01*
X187394546Y-88395024D01*
X187370356Y-88419214D01*
X187346165Y-88467595D01*
X187346165Y-88588548D01*
X187370356Y-88636929D01*
X187394546Y-88661119D01*
X187442927Y-88685310D01*
X187563880Y-88685310D01*
X187612261Y-88661119D01*
X187636451Y-88636929D01*
X187152641Y-88225690D02*
X187128451Y-88201500D01*
X187080070Y-88177310D01*
X186959117Y-88177310D01*
X186910736Y-88201500D01*
X186886546Y-88225690D01*
X186862355Y-88274071D01*
X186862355Y-88322452D01*
X186886546Y-88395024D01*
X187176832Y-88685310D01*
X186862355Y-88685310D01*
X186330164Y-88177310D02*
X186160831Y-88685310D01*
X185991497Y-88177310D01*
X185725402Y-88177310D02*
X185677021Y-88177310D01*
X185628640Y-88201500D01*
X185604449Y-88225690D01*
X185580259Y-88274071D01*
X185556068Y-88370833D01*
X185556068Y-88491786D01*
X185580259Y-88588548D01*
X185604449Y-88636929D01*
X185628640Y-88661119D01*
X185677021Y-88685310D01*
X185725402Y-88685310D01*
X185773783Y-88661119D01*
X185797973Y-88636929D01*
X185822164Y-88588548D01*
X185846354Y-88491786D01*
X185846354Y-88370833D01*
X185822164Y-88274071D01*
X185797973Y-88225690D01*
X185773783Y-88201500D01*
X185725402Y-88177310D01*
X185338354Y-88636929D02*
X185314163Y-88661119D01*
X185338354Y-88685310D01*
X185362544Y-88661119D01*
X185338354Y-88636929D01*
X185338354Y-88685310D01*
X184830353Y-88685310D02*
X185120639Y-88685310D01*
X184975496Y-88685310D02*
X184975496Y-88177310D01*
X185023877Y-88249881D01*
X185072258Y-88298262D01*
X185120639Y-88322452D01*
X191458548Y-89574310D02*
X191458548Y-89066310D01*
X191337595Y-89066310D01*
X191265024Y-89090500D01*
X191216643Y-89138881D01*
X191192452Y-89187262D01*
X191168262Y-89284024D01*
X191168262Y-89356595D01*
X191192452Y-89453357D01*
X191216643Y-89501738D01*
X191265024Y-89550119D01*
X191337595Y-89574310D01*
X191458548Y-89574310D01*
X190732833Y-89235643D02*
X190732833Y-89646881D01*
X190757024Y-89695262D01*
X190781214Y-89719452D01*
X190829595Y-89743643D01*
X190902167Y-89743643D01*
X190950548Y-89719452D01*
X190732833Y-89550119D02*
X190781214Y-89574310D01*
X190877976Y-89574310D01*
X190926357Y-89550119D01*
X190950548Y-89525929D01*
X190974738Y-89477548D01*
X190974738Y-89332405D01*
X190950548Y-89284024D01*
X190926357Y-89259833D01*
X190877976Y-89235643D01*
X190781214Y-89235643D01*
X190732833Y-89259833D01*
X190490929Y-89235643D02*
X190490929Y-89574310D01*
X190490929Y-89284024D02*
X190466738Y-89259833D01*
X190418357Y-89235643D01*
X190345786Y-89235643D01*
X190297405Y-89259833D01*
X190273214Y-89308214D01*
X190273214Y-89574310D01*
X190031310Y-89525929D02*
X190007119Y-89550119D01*
X190031310Y-89574310D01*
X190055500Y-89550119D01*
X190031310Y-89525929D01*
X190031310Y-89574310D01*
X190031310Y-89259833D02*
X190007119Y-89284024D01*
X190031310Y-89308214D01*
X190055500Y-89284024D01*
X190031310Y-89259833D01*
X190031310Y-89308214D01*
X189402357Y-89574310D02*
X189402357Y-89066310D01*
X189233023Y-89429167D01*
X189063690Y-89066310D01*
X189063690Y-89574310D01*
X188821786Y-89574310D02*
X188821786Y-89066310D01*
X188531500Y-89574310D01*
X188531500Y-89066310D01*
X188313786Y-89550119D02*
X188241215Y-89574310D01*
X188120262Y-89574310D01*
X188071881Y-89550119D01*
X188047691Y-89525929D01*
X188023500Y-89477548D01*
X188023500Y-89429167D01*
X188047691Y-89380786D01*
X188071881Y-89356595D01*
X188120262Y-89332405D01*
X188217024Y-89308214D01*
X188265405Y-89284024D01*
X188289596Y-89259833D01*
X188313786Y-89211452D01*
X188313786Y-89163071D01*
X188289596Y-89114690D01*
X188265405Y-89090500D01*
X188217024Y-89066310D01*
X188096072Y-89066310D01*
X188023500Y-89090500D01*
X191458548Y-90463310D02*
X191458548Y-89955310D01*
X191337595Y-89955310D01*
X191265024Y-89979500D01*
X191216643Y-90027881D01*
X191192452Y-90076262D01*
X191168262Y-90173024D01*
X191168262Y-90245595D01*
X191192452Y-90342357D01*
X191216643Y-90390738D01*
X191265024Y-90439119D01*
X191337595Y-90463310D01*
X191458548Y-90463310D01*
X190732833Y-90463310D02*
X190732833Y-90197214D01*
X190757024Y-90148833D01*
X190805405Y-90124643D01*
X190902167Y-90124643D01*
X190950548Y-90148833D01*
X190732833Y-90439119D02*
X190781214Y-90463310D01*
X190902167Y-90463310D01*
X190950548Y-90439119D01*
X190974738Y-90390738D01*
X190974738Y-90342357D01*
X190950548Y-90293976D01*
X190902167Y-90269786D01*
X190781214Y-90269786D01*
X190732833Y-90245595D01*
X190563500Y-90124643D02*
X190369976Y-90124643D01*
X190490929Y-89955310D02*
X190490929Y-90390738D01*
X190466738Y-90439119D01*
X190418357Y-90463310D01*
X190369976Y-90463310D01*
X190007119Y-90439119D02*
X190055500Y-90463310D01*
X190152262Y-90463310D01*
X190200643Y-90439119D01*
X190224833Y-90390738D01*
X190224833Y-90197214D01*
X190200643Y-90148833D01*
X190152262Y-90124643D01*
X190055500Y-90124643D01*
X190007119Y-90148833D01*
X189982928Y-90197214D01*
X189982928Y-90245595D01*
X190224833Y-90293976D01*
X189765214Y-90414929D02*
X189741023Y-90439119D01*
X189765214Y-90463310D01*
X189789404Y-90439119D01*
X189765214Y-90414929D01*
X189765214Y-90463310D01*
X189765214Y-90148833D02*
X189741023Y-90173024D01*
X189765214Y-90197214D01*
X189789404Y-90173024D01*
X189765214Y-90148833D01*
X189765214Y-90197214D01*
X188870165Y-90463310D02*
X189160451Y-90463310D01*
X189015308Y-90463310D02*
X189015308Y-89955310D01*
X189063689Y-90027881D01*
X189112070Y-90076262D01*
X189160451Y-90100452D01*
X188555689Y-89955310D02*
X188507308Y-89955310D01*
X188458927Y-89979500D01*
X188434736Y-90003690D01*
X188410546Y-90052071D01*
X188386355Y-90148833D01*
X188386355Y-90269786D01*
X188410546Y-90366548D01*
X188434736Y-90414929D01*
X188458927Y-90439119D01*
X188507308Y-90463310D01*
X188555689Y-90463310D01*
X188604070Y-90439119D01*
X188628260Y-90414929D01*
X188652451Y-90366548D01*
X188676641Y-90269786D01*
X188676641Y-90148833D01*
X188652451Y-90052071D01*
X188628260Y-90003690D01*
X188604070Y-89979500D01*
X188555689Y-89955310D01*
X188168641Y-90414929D02*
X188144450Y-90439119D01*
X188168641Y-90463310D01*
X188192831Y-90439119D01*
X188168641Y-90414929D01*
X188168641Y-90463310D01*
X187829974Y-89955310D02*
X187781593Y-89955310D01*
X187733212Y-89979500D01*
X187709021Y-90003690D01*
X187684831Y-90052071D01*
X187660640Y-90148833D01*
X187660640Y-90269786D01*
X187684831Y-90366548D01*
X187709021Y-90414929D01*
X187733212Y-90439119D01*
X187781593Y-90463310D01*
X187829974Y-90463310D01*
X187878355Y-90439119D01*
X187902545Y-90414929D01*
X187926736Y-90366548D01*
X187950926Y-90269786D01*
X187950926Y-90148833D01*
X187926736Y-90052071D01*
X187902545Y-90003690D01*
X187878355Y-89979500D01*
X187829974Y-89955310D01*
X187225211Y-90124643D02*
X187225211Y-90463310D01*
X187346164Y-89931119D02*
X187467116Y-90293976D01*
X187152640Y-90293976D01*
X186959116Y-90414929D02*
X186934925Y-90439119D01*
X186959116Y-90463310D01*
X186983306Y-90439119D01*
X186959116Y-90414929D01*
X186959116Y-90463310D01*
X186741401Y-90003690D02*
X186717211Y-89979500D01*
X186668830Y-89955310D01*
X186547877Y-89955310D01*
X186499496Y-89979500D01*
X186475306Y-90003690D01*
X186451115Y-90052071D01*
X186451115Y-90100452D01*
X186475306Y-90173024D01*
X186765592Y-90463310D01*
X186451115Y-90463310D01*
X186136639Y-89955310D02*
X186088258Y-89955310D01*
X186039877Y-89979500D01*
X186015686Y-90003690D01*
X185991496Y-90052071D01*
X185967305Y-90148833D01*
X185967305Y-90269786D01*
X185991496Y-90366548D01*
X186015686Y-90414929D01*
X186039877Y-90439119D01*
X186088258Y-90463310D01*
X186136639Y-90463310D01*
X186185020Y-90439119D01*
X186209210Y-90414929D01*
X186233401Y-90366548D01*
X186257591Y-90269786D01*
X186257591Y-90148833D01*
X186233401Y-90052071D01*
X186209210Y-90003690D01*
X186185020Y-89979500D01*
X186136639Y-89955310D01*
X185483495Y-90463310D02*
X185773781Y-90463310D01*
X185628638Y-90463310D02*
X185628638Y-89955310D01*
X185677019Y-90027881D01*
X185725400Y-90076262D01*
X185773781Y-90100452D01*
X185314162Y-89955310D02*
X184975495Y-89955310D01*
X185193209Y-90463310D01*
D13*
X156880000Y-100234000D02*
X156880000Y-100934000D01*
X158080000Y-100934000D02*
X158080000Y-100234000D01*
X158912000Y-100234000D02*
X158912000Y-100934000D01*
X160112000Y-100934000D02*
X160112000Y-100234000D01*
X197520000Y-87788000D02*
X197520000Y-88488000D01*
X198720000Y-88488000D02*
X198720000Y-87788000D01*
X195488000Y-87788000D02*
X195488000Y-88488000D01*
X196688000Y-88488000D02*
X196688000Y-87788000D01*
X156626000Y-90582000D02*
X156626000Y-91282000D01*
X157826000Y-91282000D02*
X157826000Y-90582000D01*
X154340000Y-90582000D02*
X154340000Y-91282000D01*
X155540000Y-91282000D02*
X155540000Y-90582000D01*
D14*
X161925000Y-86741000D02*
X155829000Y-86741000D01*
X155829000Y-86741000D02*
X155829000Y-82169000D01*
X155829000Y-82169000D02*
X161925000Y-82169000D01*
X161925000Y-82169000D02*
X161925000Y-86741000D01*
X157964143Y-98067834D02*
X158011762Y-98020215D01*
X158059381Y-97877358D01*
X158059381Y-97782120D01*
X158011762Y-97639262D01*
X157916524Y-97544024D01*
X157821286Y-97496405D01*
X157630810Y-97448786D01*
X157487952Y-97448786D01*
X157297476Y-97496405D01*
X157202238Y-97544024D01*
X157107000Y-97639262D01*
X157059381Y-97782120D01*
X157059381Y-97877358D01*
X157107000Y-98020215D01*
X157154619Y-98067834D01*
X157059381Y-98401167D02*
X157059381Y-99020215D01*
X157440333Y-98686881D01*
X157440333Y-98829739D01*
X157487952Y-98924977D01*
X157535571Y-98972596D01*
X157630810Y-99020215D01*
X157868905Y-99020215D01*
X157964143Y-98972596D01*
X158011762Y-98924977D01*
X158059381Y-98829739D01*
X158059381Y-98544024D01*
X158011762Y-98448786D01*
X157964143Y-98401167D01*
X156432381Y-99512572D02*
X156432381Y-98941143D01*
X156432381Y-99226857D02*
X155432381Y-99226857D01*
X155575238Y-99131619D01*
X155670476Y-99036381D01*
X155718095Y-98941143D01*
X155432381Y-100131619D02*
X155432381Y-100226858D01*
X155480000Y-100322096D01*
X155527619Y-100369715D01*
X155622857Y-100417334D01*
X155813333Y-100464953D01*
X156051429Y-100464953D01*
X156241905Y-100417334D01*
X156337143Y-100369715D01*
X156384762Y-100322096D01*
X156432381Y-100226858D01*
X156432381Y-100131619D01*
X156384762Y-100036381D01*
X156337143Y-99988762D01*
X156241905Y-99941143D01*
X156051429Y-99893524D01*
X155813333Y-99893524D01*
X155622857Y-99941143D01*
X155527619Y-99988762D01*
X155480000Y-100036381D01*
X155432381Y-100131619D01*
X155765714Y-101322096D02*
X156432381Y-101322096D01*
X155765714Y-100893524D02*
X156289524Y-100893524D01*
X156384762Y-100941143D01*
X156432381Y-101036381D01*
X156432381Y-101179239D01*
X156384762Y-101274477D01*
X156337143Y-101322096D01*
X155908571Y-102131620D02*
X155908571Y-101798286D01*
X156432381Y-101798286D02*
X155432381Y-101798286D01*
X155432381Y-102274477D01*
X159869143Y-98067834D02*
X159916762Y-98020215D01*
X159964381Y-97877358D01*
X159964381Y-97782120D01*
X159916762Y-97639262D01*
X159821524Y-97544024D01*
X159726286Y-97496405D01*
X159535810Y-97448786D01*
X159392952Y-97448786D01*
X159202476Y-97496405D01*
X159107238Y-97544024D01*
X159012000Y-97639262D01*
X158964381Y-97782120D01*
X158964381Y-97877358D01*
X159012000Y-98020215D01*
X159059619Y-98067834D01*
X159297714Y-98924977D02*
X159964381Y-98924977D01*
X158916762Y-98686881D02*
X159631048Y-98448786D01*
X159631048Y-99067834D01*
X161742381Y-98464881D02*
X161742381Y-97893452D01*
X161742381Y-98179166D02*
X160742381Y-98179166D01*
X160885238Y-98083928D01*
X160980476Y-97988690D01*
X161028095Y-97893452D01*
X160742381Y-99083928D02*
X160742381Y-99179167D01*
X160790000Y-99274405D01*
X160837619Y-99322024D01*
X160932857Y-99369643D01*
X161123333Y-99417262D01*
X161361429Y-99417262D01*
X161551905Y-99369643D01*
X161647143Y-99322024D01*
X161694762Y-99274405D01*
X161742381Y-99179167D01*
X161742381Y-99083928D01*
X161694762Y-98988690D01*
X161647143Y-98941071D01*
X161551905Y-98893452D01*
X161361429Y-98845833D01*
X161123333Y-98845833D01*
X160932857Y-98893452D01*
X160837619Y-98941071D01*
X160790000Y-98988690D01*
X160742381Y-99083928D01*
X160742381Y-100036309D02*
X160742381Y-100131548D01*
X160790000Y-100226786D01*
X160837619Y-100274405D01*
X160932857Y-100322024D01*
X161123333Y-100369643D01*
X161361429Y-100369643D01*
X161551905Y-100322024D01*
X161647143Y-100274405D01*
X161694762Y-100226786D01*
X161742381Y-100131548D01*
X161742381Y-100036309D01*
X161694762Y-99941071D01*
X161647143Y-99893452D01*
X161551905Y-99845833D01*
X161361429Y-99798214D01*
X161123333Y-99798214D01*
X160932857Y-99845833D01*
X160837619Y-99893452D01*
X160790000Y-99941071D01*
X160742381Y-100036309D01*
X161075714Y-100798214D02*
X161742381Y-100798214D01*
X161170952Y-100798214D02*
X161123333Y-100845833D01*
X161075714Y-100941071D01*
X161075714Y-101083929D01*
X161123333Y-101179167D01*
X161218571Y-101226786D01*
X161742381Y-101226786D01*
X161218571Y-102036310D02*
X161218571Y-101702976D01*
X161742381Y-101702976D02*
X160742381Y-101702976D01*
X160742381Y-102179167D01*
X198540643Y-85558334D02*
X198588262Y-85510715D01*
X198635881Y-85367858D01*
X198635881Y-85272620D01*
X198588262Y-85129762D01*
X198493024Y-85034524D01*
X198397786Y-84986905D01*
X198207310Y-84939286D01*
X198064452Y-84939286D01*
X197873976Y-84986905D01*
X197778738Y-85034524D01*
X197683500Y-85129762D01*
X197635881Y-85272620D01*
X197635881Y-85367858D01*
X197683500Y-85510715D01*
X197731119Y-85558334D01*
X198064452Y-86129762D02*
X198016833Y-86034524D01*
X197969214Y-85986905D01*
X197873976Y-85939286D01*
X197826357Y-85939286D01*
X197731119Y-85986905D01*
X197683500Y-86034524D01*
X197635881Y-86129762D01*
X197635881Y-86320239D01*
X197683500Y-86415477D01*
X197731119Y-86463096D01*
X197826357Y-86510715D01*
X197873976Y-86510715D01*
X197969214Y-86463096D01*
X198016833Y-86415477D01*
X198064452Y-86320239D01*
X198064452Y-86129762D01*
X198112071Y-86034524D01*
X198159690Y-85986905D01*
X198254929Y-85939286D01*
X198445405Y-85939286D01*
X198540643Y-85986905D01*
X198588262Y-86034524D01*
X198635881Y-86129762D01*
X198635881Y-86320239D01*
X198588262Y-86415477D01*
X198540643Y-86463096D01*
X198445405Y-86510715D01*
X198254929Y-86510715D01*
X198159690Y-86463096D01*
X198112071Y-86415477D01*
X198064452Y-86320239D01*
X199905881Y-87066572D02*
X199905881Y-86495143D01*
X199905881Y-86780857D02*
X198905881Y-86780857D01*
X199048738Y-86685619D01*
X199143976Y-86590381D01*
X199191595Y-86495143D01*
X198905881Y-87685619D02*
X198905881Y-87780858D01*
X198953500Y-87876096D01*
X199001119Y-87923715D01*
X199096357Y-87971334D01*
X199286833Y-88018953D01*
X199524929Y-88018953D01*
X199715405Y-87971334D01*
X199810643Y-87923715D01*
X199858262Y-87876096D01*
X199905881Y-87780858D01*
X199905881Y-87685619D01*
X199858262Y-87590381D01*
X199810643Y-87542762D01*
X199715405Y-87495143D01*
X199524929Y-87447524D01*
X199286833Y-87447524D01*
X199096357Y-87495143D01*
X199001119Y-87542762D01*
X198953500Y-87590381D01*
X198905881Y-87685619D01*
X199239214Y-88876096D02*
X199905881Y-88876096D01*
X199239214Y-88447524D02*
X199763024Y-88447524D01*
X199858262Y-88495143D01*
X199905881Y-88590381D01*
X199905881Y-88733239D01*
X199858262Y-88828477D01*
X199810643Y-88876096D01*
X199382071Y-89685620D02*
X199382071Y-89352286D01*
X199905881Y-89352286D02*
X198905881Y-89352286D01*
X198905881Y-89828477D01*
X196572143Y-85621834D02*
X196619762Y-85574215D01*
X196667381Y-85431358D01*
X196667381Y-85336120D01*
X196619762Y-85193262D01*
X196524524Y-85098024D01*
X196429286Y-85050405D01*
X196238810Y-85002786D01*
X196095952Y-85002786D01*
X195905476Y-85050405D01*
X195810238Y-85098024D01*
X195715000Y-85193262D01*
X195667381Y-85336120D01*
X195667381Y-85431358D01*
X195715000Y-85574215D01*
X195762619Y-85621834D01*
X196667381Y-86098024D02*
X196667381Y-86288500D01*
X196619762Y-86383739D01*
X196572143Y-86431358D01*
X196429286Y-86526596D01*
X196238810Y-86574215D01*
X195857857Y-86574215D01*
X195762619Y-86526596D01*
X195715000Y-86478977D01*
X195667381Y-86383739D01*
X195667381Y-86193262D01*
X195715000Y-86098024D01*
X195762619Y-86050405D01*
X195857857Y-86002786D01*
X196095952Y-86002786D01*
X196191190Y-86050405D01*
X196238810Y-86098024D01*
X196286429Y-86193262D01*
X196286429Y-86383739D01*
X196238810Y-86478977D01*
X196191190Y-86526596D01*
X196095952Y-86574215D01*
X194040381Y-86495143D02*
X194040381Y-86590382D01*
X194088000Y-86685620D01*
X194135619Y-86733239D01*
X194230857Y-86780858D01*
X194421333Y-86828477D01*
X194659429Y-86828477D01*
X194849905Y-86780858D01*
X194945143Y-86733239D01*
X194992762Y-86685620D01*
X195040381Y-86590382D01*
X195040381Y-86495143D01*
X194992762Y-86399905D01*
X194945143Y-86352286D01*
X194849905Y-86304667D01*
X194659429Y-86257048D01*
X194421333Y-86257048D01*
X194230857Y-86304667D01*
X194135619Y-86352286D01*
X194088000Y-86399905D01*
X194040381Y-86495143D01*
X194945143Y-87257048D02*
X194992762Y-87304667D01*
X195040381Y-87257048D01*
X194992762Y-87209429D01*
X194945143Y-87257048D01*
X195040381Y-87257048D01*
X195040381Y-88257048D02*
X195040381Y-87685619D01*
X195040381Y-87971333D02*
X194040381Y-87971333D01*
X194183238Y-87876095D01*
X194278476Y-87780857D01*
X194326095Y-87685619D01*
X194373714Y-89114191D02*
X195040381Y-89114191D01*
X194373714Y-88685619D02*
X194897524Y-88685619D01*
X194992762Y-88733238D01*
X195040381Y-88828476D01*
X195040381Y-88971334D01*
X194992762Y-89066572D01*
X194945143Y-89114191D01*
X194516571Y-89923715D02*
X194516571Y-89590381D01*
X195040381Y-89590381D02*
X194040381Y-89590381D01*
X194040381Y-90066572D01*
X157646643Y-93083143D02*
X157694262Y-93035524D01*
X157741881Y-92892667D01*
X157741881Y-92797429D01*
X157694262Y-92654571D01*
X157599024Y-92559333D01*
X157503786Y-92511714D01*
X157313310Y-92464095D01*
X157170452Y-92464095D01*
X156979976Y-92511714D01*
X156884738Y-92559333D01*
X156789500Y-92654571D01*
X156741881Y-92797429D01*
X156741881Y-92892667D01*
X156789500Y-93035524D01*
X156837119Y-93083143D01*
X157741881Y-94035524D02*
X157741881Y-93464095D01*
X157741881Y-93749809D02*
X156741881Y-93749809D01*
X156884738Y-93654571D01*
X156979976Y-93559333D01*
X157027595Y-93464095D01*
X156741881Y-94654571D02*
X156741881Y-94749810D01*
X156789500Y-94845048D01*
X156837119Y-94892667D01*
X156932357Y-94940286D01*
X157122833Y-94987905D01*
X157360929Y-94987905D01*
X157551405Y-94940286D01*
X157646643Y-94892667D01*
X157694262Y-94845048D01*
X157741881Y-94749810D01*
X157741881Y-94654571D01*
X157694262Y-94559333D01*
X157646643Y-94511714D01*
X157551405Y-94464095D01*
X157360929Y-94416476D01*
X157122833Y-94416476D01*
X156932357Y-94464095D01*
X156837119Y-94511714D01*
X156789500Y-94559333D01*
X156741881Y-94654571D01*
X159138881Y-89733572D02*
X159138881Y-89162143D01*
X159138881Y-89447857D02*
X158138881Y-89447857D01*
X158281738Y-89352619D01*
X158376976Y-89257381D01*
X158424595Y-89162143D01*
X158138881Y-90352619D02*
X158138881Y-90447858D01*
X158186500Y-90543096D01*
X158234119Y-90590715D01*
X158329357Y-90638334D01*
X158519833Y-90685953D01*
X158757929Y-90685953D01*
X158948405Y-90638334D01*
X159043643Y-90590715D01*
X159091262Y-90543096D01*
X159138881Y-90447858D01*
X159138881Y-90352619D01*
X159091262Y-90257381D01*
X159043643Y-90209762D01*
X158948405Y-90162143D01*
X158757929Y-90114524D01*
X158519833Y-90114524D01*
X158329357Y-90162143D01*
X158234119Y-90209762D01*
X158186500Y-90257381D01*
X158138881Y-90352619D01*
X158472214Y-91543096D02*
X159138881Y-91543096D01*
X158472214Y-91114524D02*
X158996024Y-91114524D01*
X159091262Y-91162143D01*
X159138881Y-91257381D01*
X159138881Y-91400239D01*
X159091262Y-91495477D01*
X159043643Y-91543096D01*
X158615071Y-92352620D02*
X158615071Y-92019286D01*
X159138881Y-92019286D02*
X158138881Y-92019286D01*
X158138881Y-92495477D01*
X155360643Y-93083143D02*
X155408262Y-93035524D01*
X155455881Y-92892667D01*
X155455881Y-92797429D01*
X155408262Y-92654571D01*
X155313024Y-92559333D01*
X155217786Y-92511714D01*
X155027310Y-92464095D01*
X154884452Y-92464095D01*
X154693976Y-92511714D01*
X154598738Y-92559333D01*
X154503500Y-92654571D01*
X154455881Y-92797429D01*
X154455881Y-92892667D01*
X154503500Y-93035524D01*
X154551119Y-93083143D01*
X155455881Y-94035524D02*
X155455881Y-93464095D01*
X155455881Y-93749809D02*
X154455881Y-93749809D01*
X154598738Y-93654571D01*
X154693976Y-93559333D01*
X154741595Y-93464095D01*
X155455881Y-94987905D02*
X155455881Y-94416476D01*
X155455881Y-94702190D02*
X154455881Y-94702190D01*
X154598738Y-94606952D01*
X154693976Y-94511714D01*
X154741595Y-94416476D01*
X152892381Y-89289143D02*
X152892381Y-89384382D01*
X152940000Y-89479620D01*
X152987619Y-89527239D01*
X153082857Y-89574858D01*
X153273333Y-89622477D01*
X153511429Y-89622477D01*
X153701905Y-89574858D01*
X153797143Y-89527239D01*
X153844762Y-89479620D01*
X153892381Y-89384382D01*
X153892381Y-89289143D01*
X153844762Y-89193905D01*
X153797143Y-89146286D01*
X153701905Y-89098667D01*
X153511429Y-89051048D01*
X153273333Y-89051048D01*
X153082857Y-89098667D01*
X152987619Y-89146286D01*
X152940000Y-89193905D01*
X152892381Y-89289143D01*
X153797143Y-90051048D02*
X153844762Y-90098667D01*
X153892381Y-90051048D01*
X153844762Y-90003429D01*
X153797143Y-90051048D01*
X153892381Y-90051048D01*
X153892381Y-91051048D02*
X153892381Y-90479619D01*
X153892381Y-90765333D02*
X152892381Y-90765333D01*
X153035238Y-90670095D01*
X153130476Y-90574857D01*
X153178095Y-90479619D01*
X153225714Y-91908191D02*
X153892381Y-91908191D01*
X153225714Y-91479619D02*
X153749524Y-91479619D01*
X153844762Y-91527238D01*
X153892381Y-91622476D01*
X153892381Y-91765334D01*
X153844762Y-91860572D01*
X153797143Y-91908191D01*
X153368571Y-92717715D02*
X153368571Y-92384381D01*
X153892381Y-92384381D02*
X152892381Y-92384381D01*
X152892381Y-92860572D01*
X159765905Y-87018881D02*
X159765905Y-87828405D01*
X159718286Y-87923643D01*
X159670667Y-87971262D01*
X159575429Y-88018881D01*
X159384952Y-88018881D01*
X159289714Y-87971262D01*
X159242095Y-87923643D01*
X159194476Y-87828405D01*
X159194476Y-87018881D01*
X158194476Y-88018881D02*
X158765905Y-88018881D01*
X158480191Y-88018881D02*
X158480191Y-87018881D01*
X158575429Y-87161738D01*
X158670667Y-87256976D01*
X158765905Y-87304595D01*
M02*
