G04 #@! TF.FileFunction,Copper,L2,Bot,Signal*
%FSLAX46Y46*%
G04 Gerber Fmt 4.6, Leading zero omitted, Abs format (unit mm)*
G04 Created by KiCad (PCBNEW 4.0.3-stable) date 10/04/17 18:30:16*
%MOMM*%
%LPD*%
G01*
G04 APERTURE LIST*
%ADD10C,0.152400*%
%ADD11C,0.025400*%
%ADD12C,1.778000*%
%ADD13C,0.600000*%
%ADD14R,0.750000X0.800000*%
%ADD15R,1.143000X3.683000*%
%ADD16C,1.016000*%
%ADD17C,0.635000*%
%ADD18C,0.381000*%
%ADD19C,0.228600*%
G04 APERTURE END LIST*
D10*
D11*
X200025000Y-81915000D02*
X147955000Y-81915000D01*
X200025000Y-105410000D02*
X200025000Y-81915000D01*
X147955000Y-105410000D02*
X200025000Y-105410000D01*
X147955000Y-81915000D02*
X147955000Y-105410000D01*
D12*
X154851100Y-103733600D03*
X157391100Y-103733600D03*
X159931100Y-103733600D03*
X162471100Y-103733600D03*
X165011100Y-103733600D03*
X167551100Y-103733600D03*
X170091100Y-103733600D03*
X172631100Y-103733600D03*
X175171100Y-103733600D03*
X177711100Y-103733600D03*
X180251100Y-103733600D03*
X182791100Y-103733600D03*
X185331100Y-103733600D03*
X187871100Y-103733600D03*
X190411100Y-103733600D03*
X192951100Y-103733600D03*
X192951100Y-83413600D03*
X190411100Y-83413600D03*
X187871100Y-83413600D03*
X185331100Y-83413600D03*
X182791100Y-83413600D03*
X180251100Y-83413600D03*
X177711100Y-83413600D03*
X175171100Y-83413600D03*
X172631100Y-83413600D03*
X170091100Y-83413600D03*
X167551100Y-83413600D03*
X165011100Y-83413600D03*
D13*
X192659000Y-87757000D03*
X184404000Y-90297000D03*
X198628000Y-85471000D03*
X198247000Y-103632000D03*
X199009000Y-94234000D03*
X198755000Y-99441000D03*
X186880500Y-91376500D03*
X188404500Y-87185500D03*
X198628000Y-83439000D03*
X183134000Y-85471000D03*
X171704000Y-90043000D03*
X165671500Y-100774500D03*
X151384000Y-104648000D03*
X165100000Y-92710000D03*
X163068000Y-83185000D03*
X163068000Y-85217000D03*
X188849000Y-93408500D03*
X188785500Y-92075000D03*
X183515000Y-92710000D03*
X196342000Y-85598000D03*
X196405500Y-83439000D03*
X194500500Y-85852000D03*
X192595500Y-85852000D03*
X190627000Y-85852000D03*
X178689000Y-90297000D03*
X186944000Y-85598000D03*
X194437000Y-90678000D03*
X192024000Y-90805000D03*
X194437000Y-92456000D03*
X190881000Y-93345000D03*
X195961000Y-103505000D03*
X198247000Y-101600000D03*
X195961000Y-101600000D03*
X193548000Y-101600000D03*
X190944500Y-101600000D03*
X153352500Y-102235000D03*
X160655000Y-92710000D03*
X153797000Y-82677000D03*
X152273000Y-88646000D03*
X149542500Y-87693500D03*
X154686000Y-86868000D03*
X150368000Y-82677000D03*
X168529000Y-85725000D03*
X166497000Y-86741000D03*
X170815000Y-86487000D03*
X169418000Y-87884000D03*
X166497000Y-88646000D03*
X163703000Y-88646000D03*
X157226000Y-88646000D03*
X154940000Y-88646000D03*
X160909000Y-88900000D03*
X159512000Y-90297000D03*
X174244000Y-85598000D03*
X173355000Y-87122000D03*
X163830000Y-90805000D03*
X177927000Y-85344000D03*
X177927000Y-86741000D03*
X176276000Y-86741000D03*
X181102000Y-87185500D03*
X185864500Y-87376000D03*
X183134000Y-87185500D03*
X181864000Y-90297000D03*
X194437000Y-95123000D03*
X192786000Y-95123000D03*
X190881000Y-95123000D03*
X188849000Y-95123000D03*
X185229500Y-94805500D03*
X181864000Y-95123000D03*
X185928000Y-100076000D03*
X194437000Y-97155000D03*
X192659000Y-97155000D03*
X190881000Y-97155000D03*
X188976000Y-97155000D03*
X195834000Y-99060000D03*
X193548000Y-99060000D03*
X191516000Y-99060000D03*
X189230000Y-99060000D03*
X184023000Y-98933000D03*
X188658500Y-101600000D03*
X185928000Y-97218500D03*
X182118000Y-97409000D03*
X179324000Y-97028000D03*
X163195000Y-92710000D03*
X161925000Y-94615000D03*
X176530000Y-102489000D03*
X173990000Y-102489000D03*
X161163000Y-102489000D03*
X168783000Y-102489000D03*
X179324000Y-101600000D03*
X181102000Y-100203000D03*
X179324000Y-99187000D03*
X175831500Y-99123500D03*
X172720000Y-99123500D03*
X169926000Y-99123500D03*
X167195500Y-99187000D03*
X167005000Y-94615000D03*
X163830000Y-99187000D03*
X160337500Y-97726500D03*
X159131000Y-96520000D03*
X176530000Y-100774500D03*
X173672500Y-100774500D03*
X171069000Y-100774500D03*
X168402000Y-100774500D03*
X165608000Y-96647000D03*
X156527500Y-96329500D03*
X153479500Y-98552000D03*
X149352000Y-104648000D03*
X151384000Y-100901500D03*
X149352000Y-102870000D03*
X149352000Y-100838000D03*
X149352000Y-99060000D03*
X157480000Y-98298000D03*
X151384000Y-102870000D03*
X150939500Y-99123500D03*
X183832500Y-102235000D03*
D14*
X157480000Y-99834000D03*
X157480000Y-101334000D03*
X159512000Y-99834000D03*
X159512000Y-101334000D03*
X198120000Y-87388000D03*
X198120000Y-88888000D03*
X196088000Y-87388000D03*
X196088000Y-88888000D03*
X157226000Y-90182000D03*
X157226000Y-91682000D03*
X154940000Y-90182000D03*
X154940000Y-91682000D03*
D15*
X156845000Y-84455000D03*
X158844996Y-84455000D03*
X160844992Y-84455000D03*
D16*
X197358000Y-96266000D03*
X196088000Y-96266000D03*
X197358000Y-94996000D03*
X196088000Y-94996000D03*
X197358000Y-93726000D03*
X196088000Y-93726000D03*
X197358000Y-92456000D03*
X196088000Y-92456000D03*
X197358000Y-91186000D03*
X196088000Y-91186000D03*
X151384000Y-96266000D03*
X150114000Y-96266000D03*
X151384000Y-94996000D03*
X150114000Y-94996000D03*
X151384000Y-93726000D03*
X150114000Y-93726000D03*
X151384000Y-92456000D03*
X150114000Y-92456000D03*
X151384000Y-91186000D03*
X150114000Y-91186000D03*
D12*
X150495000Y-84582000D03*
X152494996Y-84582000D03*
D13*
X166370000Y-90805000D03*
X176911000Y-93980000D03*
X174498000Y-92710000D03*
X169418000Y-94742000D03*
X178308000Y-96520000D03*
X183642000Y-97790000D03*
D17*
X159512000Y-101334000D02*
X163715000Y-101334000D01*
X168275000Y-96774000D02*
X168275000Y-93853000D01*
X163715000Y-101334000D02*
X168275000Y-96774000D01*
X196088000Y-88888000D02*
X170573000Y-88888000D01*
X161861500Y-99937000D02*
X160464500Y-101334000D01*
X161861500Y-97599500D02*
X161861500Y-99937000D01*
X170573000Y-88888000D02*
X161861500Y-97599500D01*
X160464500Y-101334000D02*
X159512000Y-101334000D01*
X169418000Y-92710000D02*
X174498000Y-92710000D01*
X168275000Y-93853000D02*
X169418000Y-92710000D01*
X159512000Y-101334000D02*
X160464500Y-101334000D01*
X157480000Y-101334000D02*
X156198000Y-101334000D01*
X154876500Y-94678500D02*
X152654000Y-92456000D01*
X154876500Y-100012500D02*
X154876500Y-94678500D01*
X156198000Y-101334000D02*
X154876500Y-100012500D01*
X174498000Y-92710000D02*
X175641000Y-92710000D01*
X175641000Y-92710000D02*
X176911000Y-93980000D01*
X157226000Y-91682000D02*
X154940000Y-91682000D01*
X154940000Y-91682000D02*
X153428000Y-91682000D01*
X153162000Y-91948000D02*
X152654000Y-92456000D01*
X153428000Y-91682000D02*
X153162000Y-91948000D01*
X152654000Y-92456000D02*
X151384000Y-92456000D01*
X198120000Y-88888000D02*
X196088000Y-88888000D01*
X197358000Y-92456000D02*
X198374000Y-92456000D01*
X198374000Y-92456000D02*
X198882000Y-91948000D01*
X198882000Y-89650000D02*
X198120000Y-88888000D01*
X198882000Y-91948000D02*
X198882000Y-89650000D01*
X159512000Y-101334000D02*
X157480000Y-101334000D01*
X157391100Y-103733600D02*
X157391100Y-101422900D01*
X157391100Y-101422900D02*
X157480000Y-101334000D01*
D18*
X157480000Y-103644700D02*
X157391100Y-103733600D01*
D19*
X169418000Y-94742000D02*
X169418000Y-97917000D01*
X165011100Y-102323900D02*
X165011100Y-103733600D01*
X169418000Y-97917000D02*
X165011100Y-102323900D01*
X165011100Y-103720900D02*
X165011100Y-103733600D01*
D18*
X178308000Y-96520000D02*
X178308000Y-101790500D01*
X178308000Y-101790500D02*
X180251100Y-103733600D01*
X196088000Y-96266000D02*
X181610000Y-96266000D01*
X181610000Y-96266000D02*
X180251100Y-97624900D01*
X180251100Y-97624900D02*
X180251100Y-103733600D01*
D19*
X178308000Y-101854000D02*
X180187600Y-103733600D01*
X178308000Y-96520000D02*
X178308000Y-101854000D01*
X180187600Y-103733600D02*
X180251100Y-103733600D01*
X180251100Y-103733600D02*
X180251100Y-103212900D01*
D18*
X181864000Y-99568000D02*
X183642000Y-97790000D01*
X182791100Y-103733600D02*
X182791100Y-101815900D01*
X182791100Y-101815900D02*
X186563000Y-98044000D01*
X182791100Y-103733600D02*
X181864000Y-102806500D01*
X181864000Y-102806500D02*
X181864000Y-99568000D01*
X197358000Y-97282000D02*
X197358000Y-96266000D01*
X196596000Y-98044000D02*
X197358000Y-97282000D01*
X186563000Y-98044000D02*
X196596000Y-98044000D01*
D19*
X182791100Y-103733600D02*
X183032400Y-103733600D01*
D18*
X185331100Y-103733600D02*
X185331100Y-102450900D01*
X198374000Y-94996000D02*
X197358000Y-94996000D01*
X198882000Y-95504000D02*
X198374000Y-94996000D01*
X198882000Y-97790000D02*
X198882000Y-95504000D01*
X196596000Y-100076000D02*
X198882000Y-97790000D01*
X187706000Y-100076000D02*
X196596000Y-100076000D01*
X185331100Y-102450900D02*
X187706000Y-100076000D01*
D17*
X158844996Y-84455000D02*
X158844996Y-86454996D01*
X165011100Y-86448900D02*
X165011100Y-83413600D01*
X163830000Y-87630000D02*
X165011100Y-86448900D01*
X160020000Y-87630000D02*
X163830000Y-87630000D01*
X158844996Y-86454996D02*
X160020000Y-87630000D01*
X152494996Y-84582000D02*
X156718000Y-84582000D01*
X156718000Y-84582000D02*
X156845000Y-84455000D01*
D10*
G36*
X199732900Y-105117900D02*
X148247100Y-105117900D01*
X148247100Y-103964989D01*
X153682498Y-103964989D01*
X153860001Y-104394581D01*
X154188391Y-104723543D01*
X154617671Y-104901796D01*
X155082489Y-104902202D01*
X155512081Y-104724699D01*
X155841043Y-104396309D01*
X156019296Y-103967029D01*
X156019702Y-103502211D01*
X155842199Y-103072619D01*
X155513809Y-102743657D01*
X155084529Y-102565404D01*
X154619711Y-102564998D01*
X154190119Y-102742501D01*
X153861157Y-103070891D01*
X153682904Y-103500171D01*
X153682498Y-103964989D01*
X148247100Y-103964989D01*
X148247100Y-92606614D01*
X149325429Y-92606614D01*
X149443093Y-92896922D01*
X149449896Y-92907104D01*
X149578058Y-92956021D01*
X150078079Y-92456000D01*
X149578058Y-91955979D01*
X149449896Y-92004896D01*
X149327818Y-92293376D01*
X149325429Y-92606614D01*
X148247100Y-92606614D01*
X148247100Y-91341936D01*
X149326464Y-91341936D01*
X149446086Y-91631444D01*
X149647230Y-91832940D01*
X149613979Y-91920058D01*
X150114000Y-92420079D01*
X150614021Y-91920058D01*
X150580683Y-91832712D01*
X150749137Y-91664552D01*
X150905448Y-91821137D01*
X150737060Y-91989230D01*
X150649942Y-91955979D01*
X150149921Y-92456000D01*
X150649942Y-92956021D01*
X150737288Y-92922683D01*
X150905448Y-93091137D01*
X150748863Y-93247448D01*
X150580770Y-93079060D01*
X150614021Y-92991942D01*
X150114000Y-92491921D01*
X149613979Y-92991942D01*
X149647317Y-93079288D01*
X149446864Y-93279391D01*
X149326737Y-93568689D01*
X149326464Y-93881936D01*
X149446086Y-94171444D01*
X149635448Y-94361137D01*
X149446864Y-94549391D01*
X149326737Y-94838689D01*
X149326464Y-95151936D01*
X149446086Y-95441444D01*
X149635448Y-95631137D01*
X149446864Y-95819391D01*
X149326737Y-96108689D01*
X149326464Y-96421936D01*
X149446086Y-96711444D01*
X149667391Y-96933136D01*
X149956689Y-97053263D01*
X150269936Y-97053536D01*
X150559444Y-96933914D01*
X150749137Y-96744552D01*
X150937391Y-96933136D01*
X151226689Y-97053263D01*
X151539936Y-97053536D01*
X151829444Y-96933914D01*
X152051136Y-96712609D01*
X152171263Y-96423311D01*
X152171536Y-96110064D01*
X152051914Y-95820556D01*
X151862552Y-95630863D01*
X152051136Y-95442609D01*
X152171263Y-95153311D01*
X152171536Y-94840064D01*
X152051914Y-94550556D01*
X151862552Y-94360863D01*
X152051136Y-94172609D01*
X152171263Y-93883311D01*
X152171536Y-93570064D01*
X152051914Y-93280556D01*
X151862552Y-93090863D01*
X151900582Y-93052900D01*
X152406756Y-93052900D01*
X154279600Y-94925744D01*
X154279600Y-100012500D01*
X154325036Y-100240924D01*
X154454428Y-100434572D01*
X155775928Y-101756072D01*
X155969576Y-101885464D01*
X156198000Y-101930900D01*
X156794200Y-101930900D01*
X156794200Y-102716023D01*
X156730119Y-102742501D01*
X156401157Y-103070891D01*
X156222904Y-103500171D01*
X156222498Y-103964989D01*
X156400001Y-104394581D01*
X156728391Y-104723543D01*
X157157671Y-104901796D01*
X157622489Y-104902202D01*
X158052081Y-104724699D01*
X158381043Y-104396309D01*
X158559296Y-103967029D01*
X158559297Y-103964989D01*
X158762498Y-103964989D01*
X158940001Y-104394581D01*
X159268391Y-104723543D01*
X159697671Y-104901796D01*
X160162489Y-104902202D01*
X160592081Y-104724699D01*
X160772759Y-104544335D01*
X161696286Y-104544335D01*
X161791586Y-104712084D01*
X162217761Y-104897641D01*
X162682504Y-104905982D01*
X163115063Y-104735838D01*
X163150614Y-104712084D01*
X163245914Y-104544335D01*
X162471100Y-103769521D01*
X161696286Y-104544335D01*
X160772759Y-104544335D01*
X160921043Y-104396309D01*
X161099296Y-103967029D01*
X161099315Y-103945004D01*
X161298718Y-103945004D01*
X161468862Y-104377563D01*
X161492616Y-104413114D01*
X161660365Y-104508414D01*
X162435179Y-103733600D01*
X162507021Y-103733600D01*
X163281835Y-104508414D01*
X163449584Y-104413114D01*
X163635141Y-103986939D01*
X163643482Y-103522196D01*
X163473338Y-103089637D01*
X163449584Y-103054086D01*
X163281835Y-102958786D01*
X162507021Y-103733600D01*
X162435179Y-103733600D01*
X161660365Y-102958786D01*
X161492616Y-103054086D01*
X161307059Y-103480261D01*
X161298718Y-103945004D01*
X161099315Y-103945004D01*
X161099702Y-103502211D01*
X160922199Y-103072619D01*
X160772706Y-102922865D01*
X161696286Y-102922865D01*
X162471100Y-103697679D01*
X163245914Y-102922865D01*
X163150614Y-102755116D01*
X162724439Y-102569559D01*
X162259696Y-102561218D01*
X161827137Y-102731362D01*
X161791586Y-102755116D01*
X161696286Y-102922865D01*
X160772706Y-102922865D01*
X160593809Y-102743657D01*
X160164529Y-102565404D01*
X159699711Y-102564998D01*
X159270119Y-102742501D01*
X158941157Y-103070891D01*
X158762904Y-103500171D01*
X158762498Y-103964989D01*
X158559297Y-103964989D01*
X158559702Y-103502211D01*
X158382199Y-103072619D01*
X158053809Y-102743657D01*
X157988000Y-102716331D01*
X157988000Y-101980433D01*
X158053634Y-101938199D01*
X158058621Y-101930900D01*
X158931685Y-101930900D01*
X158932801Y-101932634D01*
X159026168Y-101996429D01*
X159137000Y-102018873D01*
X159887000Y-102018873D01*
X159990539Y-101999391D01*
X160085634Y-101938199D01*
X160090621Y-101930900D01*
X163715000Y-101930900D01*
X163943424Y-101885464D01*
X164137072Y-101756072D01*
X168697072Y-97196072D01*
X168826464Y-97002424D01*
X168871900Y-96774000D01*
X168871900Y-94937579D01*
X168926522Y-95069775D01*
X169024300Y-95167724D01*
X169024300Y-97753924D01*
X164732712Y-102045512D01*
X164647369Y-102173237D01*
X164647369Y-102173238D01*
X164617400Y-102323900D01*
X164617400Y-102632063D01*
X164350119Y-102742501D01*
X164021157Y-103070891D01*
X163842904Y-103500171D01*
X163842498Y-103964989D01*
X164020001Y-104394581D01*
X164348391Y-104723543D01*
X164777671Y-104901796D01*
X165242489Y-104902202D01*
X165672081Y-104724699D01*
X166001043Y-104396309D01*
X166179296Y-103967029D01*
X166179297Y-103964989D01*
X166382498Y-103964989D01*
X166560001Y-104394581D01*
X166888391Y-104723543D01*
X167317671Y-104901796D01*
X167782489Y-104902202D01*
X168212081Y-104724699D01*
X168541043Y-104396309D01*
X168719296Y-103967029D01*
X168719297Y-103964989D01*
X168922498Y-103964989D01*
X169100001Y-104394581D01*
X169428391Y-104723543D01*
X169857671Y-104901796D01*
X170322489Y-104902202D01*
X170752081Y-104724699D01*
X171081043Y-104396309D01*
X171259296Y-103967029D01*
X171259297Y-103964989D01*
X171462498Y-103964989D01*
X171640001Y-104394581D01*
X171968391Y-104723543D01*
X172397671Y-104901796D01*
X172862489Y-104902202D01*
X173292081Y-104724699D01*
X173621043Y-104396309D01*
X173799296Y-103967029D01*
X173799297Y-103964989D01*
X174002498Y-103964989D01*
X174180001Y-104394581D01*
X174508391Y-104723543D01*
X174937671Y-104901796D01*
X175402489Y-104902202D01*
X175832081Y-104724699D01*
X176161043Y-104396309D01*
X176339296Y-103967029D01*
X176339297Y-103964989D01*
X176542498Y-103964989D01*
X176720001Y-104394581D01*
X177048391Y-104723543D01*
X177477671Y-104901796D01*
X177942489Y-104902202D01*
X178372081Y-104724699D01*
X178701043Y-104396309D01*
X178879296Y-103967029D01*
X178879702Y-103502211D01*
X178702199Y-103072619D01*
X178373809Y-102743657D01*
X177944529Y-102565404D01*
X177479711Y-102564998D01*
X177050119Y-102742501D01*
X176721157Y-103070891D01*
X176542904Y-103500171D01*
X176542498Y-103964989D01*
X176339297Y-103964989D01*
X176339702Y-103502211D01*
X176162199Y-103072619D01*
X175833809Y-102743657D01*
X175404529Y-102565404D01*
X174939711Y-102564998D01*
X174510119Y-102742501D01*
X174181157Y-103070891D01*
X174002904Y-103500171D01*
X174002498Y-103964989D01*
X173799297Y-103964989D01*
X173799702Y-103502211D01*
X173622199Y-103072619D01*
X173293809Y-102743657D01*
X172864529Y-102565404D01*
X172399711Y-102564998D01*
X171970119Y-102742501D01*
X171641157Y-103070891D01*
X171462904Y-103500171D01*
X171462498Y-103964989D01*
X171259297Y-103964989D01*
X171259702Y-103502211D01*
X171082199Y-103072619D01*
X170753809Y-102743657D01*
X170324529Y-102565404D01*
X169859711Y-102564998D01*
X169430119Y-102742501D01*
X169101157Y-103070891D01*
X168922904Y-103500171D01*
X168922498Y-103964989D01*
X168719297Y-103964989D01*
X168719702Y-103502211D01*
X168542199Y-103072619D01*
X168213809Y-102743657D01*
X167784529Y-102565404D01*
X167319711Y-102564998D01*
X166890119Y-102742501D01*
X166561157Y-103070891D01*
X166382904Y-103500171D01*
X166382498Y-103964989D01*
X166179297Y-103964989D01*
X166179702Y-103502211D01*
X166002199Y-103072619D01*
X165673809Y-102743657D01*
X165404800Y-102631954D01*
X165404800Y-102486976D01*
X169696388Y-98195388D01*
X169781731Y-98067662D01*
X169811700Y-97917000D01*
X169811700Y-95167668D01*
X169908905Y-95070632D01*
X169997299Y-94857755D01*
X169997500Y-94627256D01*
X169909478Y-94414225D01*
X169746632Y-94251095D01*
X169533755Y-94162701D01*
X169303256Y-94162500D01*
X169090225Y-94250522D01*
X168927095Y-94413368D01*
X168871900Y-94546293D01*
X168871900Y-94100244D01*
X169665244Y-93306900D01*
X175393756Y-93306900D01*
X176488928Y-94402072D01*
X176563187Y-94451690D01*
X176582368Y-94470905D01*
X176607662Y-94481408D01*
X176682576Y-94531464D01*
X176770172Y-94548888D01*
X176795245Y-94559299D01*
X176822633Y-94559323D01*
X176911000Y-94576900D01*
X176998595Y-94559476D01*
X177025744Y-94559500D01*
X177051056Y-94549041D01*
X177139424Y-94531464D01*
X177213682Y-94481846D01*
X177238775Y-94471478D01*
X177258160Y-94452127D01*
X177333072Y-94402072D01*
X177382690Y-94327813D01*
X177401905Y-94308632D01*
X177412408Y-94283338D01*
X177462464Y-94208424D01*
X177479888Y-94120828D01*
X177490299Y-94095755D01*
X177490323Y-94068367D01*
X177507900Y-93980000D01*
X177490476Y-93892405D01*
X177490500Y-93865256D01*
X177480041Y-93839944D01*
X177462464Y-93751576D01*
X177412846Y-93677318D01*
X177402478Y-93652225D01*
X177383127Y-93632840D01*
X177333072Y-93557928D01*
X176381758Y-92606614D01*
X195299429Y-92606614D01*
X195417093Y-92896922D01*
X195423896Y-92907104D01*
X195552058Y-92956021D01*
X196052079Y-92456000D01*
X195552058Y-91955979D01*
X195423896Y-92004896D01*
X195301818Y-92293376D01*
X195299429Y-92606614D01*
X176381758Y-92606614D01*
X176063072Y-92287928D01*
X175869424Y-92158536D01*
X175641000Y-92113100D01*
X169418000Y-92113100D01*
X169189576Y-92158536D01*
X168995928Y-92287928D01*
X167852928Y-93430928D01*
X167723536Y-93624576D01*
X167678100Y-93853000D01*
X167678100Y-96526756D01*
X163467756Y-100737100D01*
X161905544Y-100737100D01*
X162283572Y-100359072D01*
X162412964Y-100165424D01*
X162458400Y-99937000D01*
X162458400Y-97846744D01*
X170820244Y-89484900D01*
X195507685Y-89484900D01*
X195508801Y-89486634D01*
X195602168Y-89550429D01*
X195713000Y-89572873D01*
X196463000Y-89572873D01*
X196566539Y-89553391D01*
X196661634Y-89492199D01*
X196666621Y-89484900D01*
X197539685Y-89484900D01*
X197540801Y-89486634D01*
X197634168Y-89550429D01*
X197745000Y-89572873D01*
X197960729Y-89572873D01*
X198285100Y-89897244D01*
X198285100Y-91700756D01*
X198126756Y-91859100D01*
X197874722Y-91859100D01*
X197836552Y-91820863D01*
X198025136Y-91632609D01*
X198145263Y-91343311D01*
X198145536Y-91030064D01*
X198025914Y-90740556D01*
X197804609Y-90518864D01*
X197515311Y-90398737D01*
X197202064Y-90398464D01*
X196912556Y-90518086D01*
X196722863Y-90707448D01*
X196534609Y-90518864D01*
X196245311Y-90398737D01*
X195932064Y-90398464D01*
X195642556Y-90518086D01*
X195420864Y-90739391D01*
X195300737Y-91028689D01*
X195300464Y-91341936D01*
X195420086Y-91631444D01*
X195621230Y-91832940D01*
X195587979Y-91920058D01*
X196088000Y-92420079D01*
X196588021Y-91920058D01*
X196554683Y-91832712D01*
X196723137Y-91664552D01*
X196879448Y-91821137D01*
X196711060Y-91989230D01*
X196623942Y-91955979D01*
X196123921Y-92456000D01*
X196623942Y-92956021D01*
X196711288Y-92922683D01*
X196879448Y-93091137D01*
X196722863Y-93247448D01*
X196554770Y-93079060D01*
X196588021Y-92991942D01*
X196088000Y-92491921D01*
X195587979Y-92991942D01*
X195621317Y-93079288D01*
X195420864Y-93279391D01*
X195300737Y-93568689D01*
X195300464Y-93881936D01*
X195420086Y-94171444D01*
X195609448Y-94361137D01*
X195420864Y-94549391D01*
X195300737Y-94838689D01*
X195300464Y-95151936D01*
X195420086Y-95441444D01*
X195609448Y-95631137D01*
X195444196Y-95796100D01*
X181610000Y-95796100D01*
X181430177Y-95831869D01*
X181277731Y-95933730D01*
X179918831Y-97292631D01*
X179816969Y-97445077D01*
X179781200Y-97624900D01*
X179781200Y-102599161D01*
X178777900Y-101595862D01*
X178777900Y-96869600D01*
X178798905Y-96848632D01*
X178887299Y-96635755D01*
X178887500Y-96405256D01*
X178799478Y-96192225D01*
X178636632Y-96029095D01*
X178423755Y-95940701D01*
X178193256Y-95940500D01*
X177980225Y-96028522D01*
X177817095Y-96191368D01*
X177728701Y-96404245D01*
X177728500Y-96634744D01*
X177816522Y-96847775D01*
X177838100Y-96869391D01*
X177838100Y-101790500D01*
X177866372Y-101932634D01*
X177873869Y-101970323D01*
X177975731Y-102122769D01*
X179162190Y-103309229D01*
X179082904Y-103500171D01*
X179082498Y-103964989D01*
X179260001Y-104394581D01*
X179588391Y-104723543D01*
X180017671Y-104901796D01*
X180482489Y-104902202D01*
X180912081Y-104724699D01*
X181241043Y-104396309D01*
X181419296Y-103967029D01*
X181419702Y-103502211D01*
X181242199Y-103072619D01*
X180913809Y-102743657D01*
X180721000Y-102663596D01*
X180721000Y-97819538D01*
X181804639Y-96735900D01*
X195444499Y-96735900D01*
X195641391Y-96933136D01*
X195930689Y-97053263D01*
X196243936Y-97053536D01*
X196533444Y-96933914D01*
X196723137Y-96744552D01*
X196888100Y-96909804D01*
X196888100Y-97087361D01*
X196401362Y-97574100D01*
X186563000Y-97574100D01*
X186383177Y-97609869D01*
X186230730Y-97711731D01*
X182458831Y-101483631D01*
X182356969Y-101636077D01*
X182333900Y-101752053D01*
X182333900Y-99762638D01*
X183727065Y-98369474D01*
X183756744Y-98369500D01*
X183969775Y-98281478D01*
X184132905Y-98118632D01*
X184221299Y-97905755D01*
X184221500Y-97675256D01*
X184133478Y-97462225D01*
X183970632Y-97299095D01*
X183757755Y-97210701D01*
X183527256Y-97210500D01*
X183314225Y-97298522D01*
X183151095Y-97461368D01*
X183062701Y-97674245D01*
X183062674Y-97704787D01*
X181531731Y-99235731D01*
X181429869Y-99388177D01*
X181394100Y-99568000D01*
X181394100Y-102806500D01*
X181419563Y-102934512D01*
X181429869Y-102986323D01*
X181531731Y-103138769D01*
X181702190Y-103309229D01*
X181622904Y-103500171D01*
X181622498Y-103964989D01*
X181800001Y-104394581D01*
X182128391Y-104723543D01*
X182557671Y-104901796D01*
X183022489Y-104902202D01*
X183452081Y-104724699D01*
X183781043Y-104396309D01*
X183959296Y-103967029D01*
X183959702Y-103502211D01*
X183782199Y-103072619D01*
X183453809Y-102743657D01*
X183261000Y-102663596D01*
X183261000Y-102010538D01*
X186757639Y-98513900D01*
X196596000Y-98513900D01*
X196775823Y-98478131D01*
X196928269Y-98376269D01*
X197690270Y-97614269D01*
X197792131Y-97461823D01*
X197827900Y-97282000D01*
X197827900Y-96909501D01*
X198025136Y-96712609D01*
X198145263Y-96423311D01*
X198145536Y-96110064D01*
X198025914Y-95820556D01*
X197836552Y-95630863D01*
X198001804Y-95465900D01*
X198179362Y-95465900D01*
X198412100Y-95698639D01*
X198412100Y-97595361D01*
X196401362Y-99606100D01*
X187706000Y-99606100D01*
X187526177Y-99641869D01*
X187373731Y-99743730D01*
X184998831Y-102118631D01*
X184896969Y-102271077D01*
X184861200Y-102450900D01*
X184861200Y-102663548D01*
X184670119Y-102742501D01*
X184341157Y-103070891D01*
X184162904Y-103500171D01*
X184162498Y-103964989D01*
X184340001Y-104394581D01*
X184668391Y-104723543D01*
X185097671Y-104901796D01*
X185562489Y-104902202D01*
X185992081Y-104724699D01*
X186321043Y-104396309D01*
X186499296Y-103967029D01*
X186499297Y-103964989D01*
X186702498Y-103964989D01*
X186880001Y-104394581D01*
X187208391Y-104723543D01*
X187637671Y-104901796D01*
X188102489Y-104902202D01*
X188532081Y-104724699D01*
X188861043Y-104396309D01*
X189039296Y-103967029D01*
X189039297Y-103964989D01*
X189242498Y-103964989D01*
X189420001Y-104394581D01*
X189748391Y-104723543D01*
X190177671Y-104901796D01*
X190642489Y-104902202D01*
X191072081Y-104724699D01*
X191401043Y-104396309D01*
X191579296Y-103967029D01*
X191579297Y-103964989D01*
X191782498Y-103964989D01*
X191960001Y-104394581D01*
X192288391Y-104723543D01*
X192717671Y-104901796D01*
X193182489Y-104902202D01*
X193612081Y-104724699D01*
X193941043Y-104396309D01*
X194119296Y-103967029D01*
X194119702Y-103502211D01*
X193942199Y-103072619D01*
X193613809Y-102743657D01*
X193184529Y-102565404D01*
X192719711Y-102564998D01*
X192290119Y-102742501D01*
X191961157Y-103070891D01*
X191782904Y-103500171D01*
X191782498Y-103964989D01*
X191579297Y-103964989D01*
X191579702Y-103502211D01*
X191402199Y-103072619D01*
X191073809Y-102743657D01*
X190644529Y-102565404D01*
X190179711Y-102564998D01*
X189750119Y-102742501D01*
X189421157Y-103070891D01*
X189242904Y-103500171D01*
X189242498Y-103964989D01*
X189039297Y-103964989D01*
X189039702Y-103502211D01*
X188862199Y-103072619D01*
X188533809Y-102743657D01*
X188104529Y-102565404D01*
X187639711Y-102564998D01*
X187210119Y-102742501D01*
X186881157Y-103070891D01*
X186702904Y-103500171D01*
X186702498Y-103964989D01*
X186499297Y-103964989D01*
X186499702Y-103502211D01*
X186322199Y-103072619D01*
X185993809Y-102743657D01*
X185801000Y-102663596D01*
X185801000Y-102645538D01*
X187900639Y-100545900D01*
X196596000Y-100545900D01*
X196775823Y-100510131D01*
X196928269Y-100408269D01*
X199214269Y-98122270D01*
X199316131Y-97969823D01*
X199344356Y-97827924D01*
X199351900Y-97790000D01*
X199351900Y-95504000D01*
X199316131Y-95324177D01*
X199283539Y-95275400D01*
X199214269Y-95171730D01*
X198706269Y-94663731D01*
X198553823Y-94561869D01*
X198541913Y-94559500D01*
X198374000Y-94526100D01*
X198001501Y-94526100D01*
X197836552Y-94360863D01*
X198025136Y-94172609D01*
X198145263Y-93883311D01*
X198145536Y-93570064D01*
X198025914Y-93280556D01*
X197836552Y-93090863D01*
X197874582Y-93052900D01*
X198374000Y-93052900D01*
X198602424Y-93007464D01*
X198796072Y-92878072D01*
X199304072Y-92370072D01*
X199433464Y-92176424D01*
X199478900Y-91948000D01*
X199478900Y-89650000D01*
X199433464Y-89421576D01*
X199304072Y-89227928D01*
X198779873Y-88703729D01*
X198779873Y-88488000D01*
X198760391Y-88384461D01*
X198699199Y-88289366D01*
X198605832Y-88225571D01*
X198495000Y-88203127D01*
X197745000Y-88203127D01*
X197641461Y-88222609D01*
X197546366Y-88283801D01*
X197541379Y-88291100D01*
X196668315Y-88291100D01*
X196667199Y-88289366D01*
X196573832Y-88225571D01*
X196463000Y-88203127D01*
X195713000Y-88203127D01*
X195609461Y-88222609D01*
X195514366Y-88283801D01*
X195509379Y-88291100D01*
X170573000Y-88291100D01*
X170344576Y-88336536D01*
X170150928Y-88465928D01*
X161439428Y-97177428D01*
X161310036Y-97371076D01*
X161264600Y-97599500D01*
X161264600Y-99689756D01*
X160217256Y-100737100D01*
X160092315Y-100737100D01*
X160091199Y-100735366D01*
X159997832Y-100671571D01*
X159887000Y-100649127D01*
X159137000Y-100649127D01*
X159033461Y-100668609D01*
X158938366Y-100729801D01*
X158933379Y-100737100D01*
X158060315Y-100737100D01*
X158059199Y-100735366D01*
X157965832Y-100671571D01*
X157855000Y-100649127D01*
X157105000Y-100649127D01*
X157001461Y-100668609D01*
X156906366Y-100729801D01*
X156901379Y-100737100D01*
X156445244Y-100737100D01*
X155637394Y-99929250D01*
X156825600Y-99929250D01*
X156825600Y-100289576D01*
X156868136Y-100392267D01*
X156946733Y-100470864D01*
X157049424Y-100513400D01*
X157384750Y-100513400D01*
X157454600Y-100443550D01*
X157454600Y-99859400D01*
X157505400Y-99859400D01*
X157505400Y-100443550D01*
X157575250Y-100513400D01*
X157910576Y-100513400D01*
X158013267Y-100470864D01*
X158091864Y-100392267D01*
X158134400Y-100289576D01*
X158134400Y-99929250D01*
X158857600Y-99929250D01*
X158857600Y-100289576D01*
X158900136Y-100392267D01*
X158978733Y-100470864D01*
X159081424Y-100513400D01*
X159416750Y-100513400D01*
X159486600Y-100443550D01*
X159486600Y-99859400D01*
X159537400Y-99859400D01*
X159537400Y-100443550D01*
X159607250Y-100513400D01*
X159942576Y-100513400D01*
X160045267Y-100470864D01*
X160123864Y-100392267D01*
X160166400Y-100289576D01*
X160166400Y-99929250D01*
X160096550Y-99859400D01*
X159537400Y-99859400D01*
X159486600Y-99859400D01*
X158927450Y-99859400D01*
X158857600Y-99929250D01*
X158134400Y-99929250D01*
X158064550Y-99859400D01*
X157505400Y-99859400D01*
X157454600Y-99859400D01*
X156895450Y-99859400D01*
X156825600Y-99929250D01*
X155637394Y-99929250D01*
X155473400Y-99765256D01*
X155473400Y-99378424D01*
X156825600Y-99378424D01*
X156825600Y-99738750D01*
X156895450Y-99808600D01*
X157454600Y-99808600D01*
X157454600Y-99224450D01*
X157505400Y-99224450D01*
X157505400Y-99808600D01*
X158064550Y-99808600D01*
X158134400Y-99738750D01*
X158134400Y-99378424D01*
X158857600Y-99378424D01*
X158857600Y-99738750D01*
X158927450Y-99808600D01*
X159486600Y-99808600D01*
X159486600Y-99224450D01*
X159537400Y-99224450D01*
X159537400Y-99808600D01*
X160096550Y-99808600D01*
X160166400Y-99738750D01*
X160166400Y-99378424D01*
X160123864Y-99275733D01*
X160045267Y-99197136D01*
X159942576Y-99154600D01*
X159607250Y-99154600D01*
X159537400Y-99224450D01*
X159486600Y-99224450D01*
X159416750Y-99154600D01*
X159081424Y-99154600D01*
X158978733Y-99197136D01*
X158900136Y-99275733D01*
X158857600Y-99378424D01*
X158134400Y-99378424D01*
X158091864Y-99275733D01*
X158013267Y-99197136D01*
X157910576Y-99154600D01*
X157575250Y-99154600D01*
X157505400Y-99224450D01*
X157454600Y-99224450D01*
X157384750Y-99154600D01*
X157049424Y-99154600D01*
X156946733Y-99197136D01*
X156868136Y-99275733D01*
X156825600Y-99378424D01*
X155473400Y-99378424D01*
X155473400Y-94678500D01*
X155427964Y-94450076D01*
X155298572Y-94256428D01*
X153498144Y-92456000D01*
X153675244Y-92278900D01*
X154359685Y-92278900D01*
X154360801Y-92280634D01*
X154454168Y-92344429D01*
X154565000Y-92366873D01*
X155315000Y-92366873D01*
X155418539Y-92347391D01*
X155513634Y-92286199D01*
X155518621Y-92278900D01*
X156645685Y-92278900D01*
X156646801Y-92280634D01*
X156740168Y-92344429D01*
X156851000Y-92366873D01*
X157601000Y-92366873D01*
X157704539Y-92347391D01*
X157799634Y-92286199D01*
X157863429Y-92192832D01*
X157885873Y-92082000D01*
X157885873Y-91282000D01*
X157866391Y-91178461D01*
X157805199Y-91083366D01*
X157711832Y-91019571D01*
X157601000Y-90997127D01*
X156851000Y-90997127D01*
X156747461Y-91016609D01*
X156652366Y-91077801D01*
X156647379Y-91085100D01*
X155520315Y-91085100D01*
X155519199Y-91083366D01*
X155425832Y-91019571D01*
X155315000Y-90997127D01*
X154565000Y-90997127D01*
X154461461Y-91016609D01*
X154366366Y-91077801D01*
X154361379Y-91085100D01*
X153428000Y-91085100D01*
X153199576Y-91130536D01*
X153005928Y-91259928D01*
X152406756Y-91859100D01*
X151900722Y-91859100D01*
X151862552Y-91820863D01*
X152051136Y-91632609D01*
X152171263Y-91343311D01*
X152171536Y-91030064D01*
X152051914Y-90740556D01*
X151830609Y-90518864D01*
X151541311Y-90398737D01*
X151228064Y-90398464D01*
X150938556Y-90518086D01*
X150748863Y-90707448D01*
X150560609Y-90518864D01*
X150271311Y-90398737D01*
X149958064Y-90398464D01*
X149668556Y-90518086D01*
X149446864Y-90739391D01*
X149326737Y-91028689D01*
X149326464Y-91341936D01*
X148247100Y-91341936D01*
X148247100Y-90277250D01*
X154285600Y-90277250D01*
X154285600Y-90637576D01*
X154328136Y-90740267D01*
X154406733Y-90818864D01*
X154509424Y-90861400D01*
X154844750Y-90861400D01*
X154914600Y-90791550D01*
X154914600Y-90207400D01*
X154965400Y-90207400D01*
X154965400Y-90791550D01*
X155035250Y-90861400D01*
X155370576Y-90861400D01*
X155473267Y-90818864D01*
X155551864Y-90740267D01*
X155594400Y-90637576D01*
X155594400Y-90277250D01*
X156571600Y-90277250D01*
X156571600Y-90637576D01*
X156614136Y-90740267D01*
X156692733Y-90818864D01*
X156795424Y-90861400D01*
X157130750Y-90861400D01*
X157200600Y-90791550D01*
X157200600Y-90207400D01*
X157251400Y-90207400D01*
X157251400Y-90791550D01*
X157321250Y-90861400D01*
X157656576Y-90861400D01*
X157759267Y-90818864D01*
X157837864Y-90740267D01*
X157880400Y-90637576D01*
X157880400Y-90277250D01*
X157810550Y-90207400D01*
X157251400Y-90207400D01*
X157200600Y-90207400D01*
X156641450Y-90207400D01*
X156571600Y-90277250D01*
X155594400Y-90277250D01*
X155524550Y-90207400D01*
X154965400Y-90207400D01*
X154914600Y-90207400D01*
X154355450Y-90207400D01*
X154285600Y-90277250D01*
X148247100Y-90277250D01*
X148247100Y-89726424D01*
X154285600Y-89726424D01*
X154285600Y-90086750D01*
X154355450Y-90156600D01*
X154914600Y-90156600D01*
X154914600Y-89572450D01*
X154965400Y-89572450D01*
X154965400Y-90156600D01*
X155524550Y-90156600D01*
X155594400Y-90086750D01*
X155594400Y-89726424D01*
X156571600Y-89726424D01*
X156571600Y-90086750D01*
X156641450Y-90156600D01*
X157200600Y-90156600D01*
X157200600Y-89572450D01*
X157251400Y-89572450D01*
X157251400Y-90156600D01*
X157810550Y-90156600D01*
X157880400Y-90086750D01*
X157880400Y-89726424D01*
X157837864Y-89623733D01*
X157759267Y-89545136D01*
X157656576Y-89502600D01*
X157321250Y-89502600D01*
X157251400Y-89572450D01*
X157200600Y-89572450D01*
X157130750Y-89502600D01*
X156795424Y-89502600D01*
X156692733Y-89545136D01*
X156614136Y-89623733D01*
X156571600Y-89726424D01*
X155594400Y-89726424D01*
X155551864Y-89623733D01*
X155473267Y-89545136D01*
X155370576Y-89502600D01*
X155035250Y-89502600D01*
X154965400Y-89572450D01*
X154914600Y-89572450D01*
X154844750Y-89502600D01*
X154509424Y-89502600D01*
X154406733Y-89545136D01*
X154328136Y-89623733D01*
X154285600Y-89726424D01*
X148247100Y-89726424D01*
X148247100Y-85392735D01*
X149720186Y-85392735D01*
X149815486Y-85560484D01*
X150241661Y-85746041D01*
X150706404Y-85754382D01*
X151138963Y-85584238D01*
X151174514Y-85560484D01*
X151269814Y-85392735D01*
X150495000Y-84617921D01*
X149720186Y-85392735D01*
X148247100Y-85392735D01*
X148247100Y-84793404D01*
X149322618Y-84793404D01*
X149492762Y-85225963D01*
X149516516Y-85261514D01*
X149684265Y-85356814D01*
X150459079Y-84582000D01*
X150530921Y-84582000D01*
X151305735Y-85356814D01*
X151473484Y-85261514D01*
X151493018Y-85216651D01*
X151503897Y-85242981D01*
X151832287Y-85571943D01*
X152261567Y-85750196D01*
X152726385Y-85750602D01*
X153155977Y-85573099D01*
X153484939Y-85244709D01*
X153512265Y-85178900D01*
X155988627Y-85178900D01*
X155988627Y-86296500D01*
X156008109Y-86400039D01*
X156069301Y-86495134D01*
X156162668Y-86558929D01*
X156273500Y-86581373D01*
X157416500Y-86581373D01*
X157520039Y-86561891D01*
X157615134Y-86500699D01*
X157678929Y-86407332D01*
X157701373Y-86296500D01*
X157701373Y-82613500D01*
X157988623Y-82613500D01*
X157988623Y-86296500D01*
X158008105Y-86400039D01*
X158069297Y-86495134D01*
X158162664Y-86558929D01*
X158273223Y-86581318D01*
X158293532Y-86683420D01*
X158422924Y-86877068D01*
X159597928Y-88052072D01*
X159791576Y-88181464D01*
X160020000Y-88226900D01*
X163830000Y-88226900D01*
X164058424Y-88181464D01*
X164252072Y-88052072D01*
X164820894Y-87483250D01*
X195433600Y-87483250D01*
X195433600Y-87843576D01*
X195476136Y-87946267D01*
X195554733Y-88024864D01*
X195657424Y-88067400D01*
X195992750Y-88067400D01*
X196062600Y-87997550D01*
X196062600Y-87413400D01*
X196113400Y-87413400D01*
X196113400Y-87997550D01*
X196183250Y-88067400D01*
X196518576Y-88067400D01*
X196621267Y-88024864D01*
X196699864Y-87946267D01*
X196742400Y-87843576D01*
X196742400Y-87483250D01*
X197465600Y-87483250D01*
X197465600Y-87843576D01*
X197508136Y-87946267D01*
X197586733Y-88024864D01*
X197689424Y-88067400D01*
X198024750Y-88067400D01*
X198094600Y-87997550D01*
X198094600Y-87413400D01*
X198145400Y-87413400D01*
X198145400Y-87997550D01*
X198215250Y-88067400D01*
X198550576Y-88067400D01*
X198653267Y-88024864D01*
X198731864Y-87946267D01*
X198774400Y-87843576D01*
X198774400Y-87483250D01*
X198704550Y-87413400D01*
X198145400Y-87413400D01*
X198094600Y-87413400D01*
X197535450Y-87413400D01*
X197465600Y-87483250D01*
X196742400Y-87483250D01*
X196672550Y-87413400D01*
X196113400Y-87413400D01*
X196062600Y-87413400D01*
X195503450Y-87413400D01*
X195433600Y-87483250D01*
X164820894Y-87483250D01*
X165371720Y-86932424D01*
X195433600Y-86932424D01*
X195433600Y-87292750D01*
X195503450Y-87362600D01*
X196062600Y-87362600D01*
X196062600Y-86778450D01*
X196113400Y-86778450D01*
X196113400Y-87362600D01*
X196672550Y-87362600D01*
X196742400Y-87292750D01*
X196742400Y-86932424D01*
X197465600Y-86932424D01*
X197465600Y-87292750D01*
X197535450Y-87362600D01*
X198094600Y-87362600D01*
X198094600Y-86778450D01*
X198145400Y-86778450D01*
X198145400Y-87362600D01*
X198704550Y-87362600D01*
X198774400Y-87292750D01*
X198774400Y-86932424D01*
X198731864Y-86829733D01*
X198653267Y-86751136D01*
X198550576Y-86708600D01*
X198215250Y-86708600D01*
X198145400Y-86778450D01*
X198094600Y-86778450D01*
X198024750Y-86708600D01*
X197689424Y-86708600D01*
X197586733Y-86751136D01*
X197508136Y-86829733D01*
X197465600Y-86932424D01*
X196742400Y-86932424D01*
X196699864Y-86829733D01*
X196621267Y-86751136D01*
X196518576Y-86708600D01*
X196183250Y-86708600D01*
X196113400Y-86778450D01*
X196062600Y-86778450D01*
X195992750Y-86708600D01*
X195657424Y-86708600D01*
X195554733Y-86751136D01*
X195476136Y-86829733D01*
X195433600Y-86932424D01*
X165371720Y-86932424D01*
X165433172Y-86870972D01*
X165562564Y-86677324D01*
X165608000Y-86448900D01*
X165608000Y-84431177D01*
X165672081Y-84404699D01*
X166001043Y-84076309D01*
X166179296Y-83647029D01*
X166179297Y-83644989D01*
X166382498Y-83644989D01*
X166560001Y-84074581D01*
X166888391Y-84403543D01*
X167317671Y-84581796D01*
X167782489Y-84582202D01*
X168212081Y-84404699D01*
X168541043Y-84076309D01*
X168719296Y-83647029D01*
X168719297Y-83644989D01*
X168922498Y-83644989D01*
X169100001Y-84074581D01*
X169428391Y-84403543D01*
X169857671Y-84581796D01*
X170322489Y-84582202D01*
X170752081Y-84404699D01*
X171081043Y-84076309D01*
X171259296Y-83647029D01*
X171259297Y-83644989D01*
X171462498Y-83644989D01*
X171640001Y-84074581D01*
X171968391Y-84403543D01*
X172397671Y-84581796D01*
X172862489Y-84582202D01*
X173292081Y-84404699D01*
X173621043Y-84076309D01*
X173799296Y-83647029D01*
X173799297Y-83644989D01*
X174002498Y-83644989D01*
X174180001Y-84074581D01*
X174508391Y-84403543D01*
X174937671Y-84581796D01*
X175402489Y-84582202D01*
X175832081Y-84404699D01*
X176161043Y-84076309D01*
X176339296Y-83647029D01*
X176339297Y-83644989D01*
X176542498Y-83644989D01*
X176720001Y-84074581D01*
X177048391Y-84403543D01*
X177477671Y-84581796D01*
X177942489Y-84582202D01*
X178372081Y-84404699D01*
X178701043Y-84076309D01*
X178879296Y-83647029D01*
X178879297Y-83644989D01*
X179082498Y-83644989D01*
X179260001Y-84074581D01*
X179588391Y-84403543D01*
X180017671Y-84581796D01*
X180482489Y-84582202D01*
X180912081Y-84404699D01*
X181241043Y-84076309D01*
X181419296Y-83647029D01*
X181419297Y-83644989D01*
X181622498Y-83644989D01*
X181800001Y-84074581D01*
X182128391Y-84403543D01*
X182557671Y-84581796D01*
X183022489Y-84582202D01*
X183452081Y-84404699D01*
X183781043Y-84076309D01*
X183959296Y-83647029D01*
X183959297Y-83644989D01*
X184162498Y-83644989D01*
X184340001Y-84074581D01*
X184668391Y-84403543D01*
X185097671Y-84581796D01*
X185562489Y-84582202D01*
X185992081Y-84404699D01*
X186321043Y-84076309D01*
X186499296Y-83647029D01*
X186499297Y-83644989D01*
X186702498Y-83644989D01*
X186880001Y-84074581D01*
X187208391Y-84403543D01*
X187637671Y-84581796D01*
X188102489Y-84582202D01*
X188532081Y-84404699D01*
X188861043Y-84076309D01*
X189039296Y-83647029D01*
X189039297Y-83644989D01*
X189242498Y-83644989D01*
X189420001Y-84074581D01*
X189748391Y-84403543D01*
X190177671Y-84581796D01*
X190642489Y-84582202D01*
X191072081Y-84404699D01*
X191401043Y-84076309D01*
X191579296Y-83647029D01*
X191579297Y-83644989D01*
X191782498Y-83644989D01*
X191960001Y-84074581D01*
X192288391Y-84403543D01*
X192717671Y-84581796D01*
X193182489Y-84582202D01*
X193612081Y-84404699D01*
X193941043Y-84076309D01*
X194119296Y-83647029D01*
X194119702Y-83182211D01*
X193942199Y-82752619D01*
X193613809Y-82423657D01*
X193184529Y-82245404D01*
X192719711Y-82244998D01*
X192290119Y-82422501D01*
X191961157Y-82750891D01*
X191782904Y-83180171D01*
X191782498Y-83644989D01*
X191579297Y-83644989D01*
X191579702Y-83182211D01*
X191402199Y-82752619D01*
X191073809Y-82423657D01*
X190644529Y-82245404D01*
X190179711Y-82244998D01*
X189750119Y-82422501D01*
X189421157Y-82750891D01*
X189242904Y-83180171D01*
X189242498Y-83644989D01*
X189039297Y-83644989D01*
X189039702Y-83182211D01*
X188862199Y-82752619D01*
X188533809Y-82423657D01*
X188104529Y-82245404D01*
X187639711Y-82244998D01*
X187210119Y-82422501D01*
X186881157Y-82750891D01*
X186702904Y-83180171D01*
X186702498Y-83644989D01*
X186499297Y-83644989D01*
X186499702Y-83182211D01*
X186322199Y-82752619D01*
X185993809Y-82423657D01*
X185564529Y-82245404D01*
X185099711Y-82244998D01*
X184670119Y-82422501D01*
X184341157Y-82750891D01*
X184162904Y-83180171D01*
X184162498Y-83644989D01*
X183959297Y-83644989D01*
X183959702Y-83182211D01*
X183782199Y-82752619D01*
X183453809Y-82423657D01*
X183024529Y-82245404D01*
X182559711Y-82244998D01*
X182130119Y-82422501D01*
X181801157Y-82750891D01*
X181622904Y-83180171D01*
X181622498Y-83644989D01*
X181419297Y-83644989D01*
X181419702Y-83182211D01*
X181242199Y-82752619D01*
X180913809Y-82423657D01*
X180484529Y-82245404D01*
X180019711Y-82244998D01*
X179590119Y-82422501D01*
X179261157Y-82750891D01*
X179082904Y-83180171D01*
X179082498Y-83644989D01*
X178879297Y-83644989D01*
X178879702Y-83182211D01*
X178702199Y-82752619D01*
X178373809Y-82423657D01*
X177944529Y-82245404D01*
X177479711Y-82244998D01*
X177050119Y-82422501D01*
X176721157Y-82750891D01*
X176542904Y-83180171D01*
X176542498Y-83644989D01*
X176339297Y-83644989D01*
X176339702Y-83182211D01*
X176162199Y-82752619D01*
X175833809Y-82423657D01*
X175404529Y-82245404D01*
X174939711Y-82244998D01*
X174510119Y-82422501D01*
X174181157Y-82750891D01*
X174002904Y-83180171D01*
X174002498Y-83644989D01*
X173799297Y-83644989D01*
X173799702Y-83182211D01*
X173622199Y-82752619D01*
X173293809Y-82423657D01*
X172864529Y-82245404D01*
X172399711Y-82244998D01*
X171970119Y-82422501D01*
X171641157Y-82750891D01*
X171462904Y-83180171D01*
X171462498Y-83644989D01*
X171259297Y-83644989D01*
X171259702Y-83182211D01*
X171082199Y-82752619D01*
X170753809Y-82423657D01*
X170324529Y-82245404D01*
X169859711Y-82244998D01*
X169430119Y-82422501D01*
X169101157Y-82750891D01*
X168922904Y-83180171D01*
X168922498Y-83644989D01*
X168719297Y-83644989D01*
X168719702Y-83182211D01*
X168542199Y-82752619D01*
X168213809Y-82423657D01*
X167784529Y-82245404D01*
X167319711Y-82244998D01*
X166890119Y-82422501D01*
X166561157Y-82750891D01*
X166382904Y-83180171D01*
X166382498Y-83644989D01*
X166179297Y-83644989D01*
X166179702Y-83182211D01*
X166002199Y-82752619D01*
X165673809Y-82423657D01*
X165244529Y-82245404D01*
X164779711Y-82244998D01*
X164350119Y-82422501D01*
X164021157Y-82750891D01*
X163842904Y-83180171D01*
X163842498Y-83644989D01*
X164020001Y-84074581D01*
X164348391Y-84403543D01*
X164414200Y-84430869D01*
X164414200Y-86201656D01*
X163582756Y-87033100D01*
X160267244Y-87033100D01*
X159663724Y-86429580D01*
X159678925Y-86407332D01*
X159701369Y-86296500D01*
X159701369Y-82613500D01*
X159988619Y-82613500D01*
X159988619Y-86296500D01*
X160008101Y-86400039D01*
X160069293Y-86495134D01*
X160162660Y-86558929D01*
X160273492Y-86581373D01*
X161416492Y-86581373D01*
X161520031Y-86561891D01*
X161615126Y-86500699D01*
X161678921Y-86407332D01*
X161701365Y-86296500D01*
X161701365Y-82613500D01*
X161681883Y-82509961D01*
X161620691Y-82414866D01*
X161527324Y-82351071D01*
X161416492Y-82328627D01*
X160273492Y-82328627D01*
X160169953Y-82348109D01*
X160074858Y-82409301D01*
X160011063Y-82502668D01*
X159988619Y-82613500D01*
X159701369Y-82613500D01*
X159681887Y-82509961D01*
X159620695Y-82414866D01*
X159527328Y-82351071D01*
X159416496Y-82328627D01*
X158273496Y-82328627D01*
X158169957Y-82348109D01*
X158074862Y-82409301D01*
X158011067Y-82502668D01*
X157988623Y-82613500D01*
X157701373Y-82613500D01*
X157681891Y-82509961D01*
X157620699Y-82414866D01*
X157527332Y-82351071D01*
X157416500Y-82328627D01*
X156273500Y-82328627D01*
X156169961Y-82348109D01*
X156074866Y-82409301D01*
X156011071Y-82502668D01*
X155988627Y-82613500D01*
X155988627Y-83985100D01*
X153512573Y-83985100D01*
X153486095Y-83921019D01*
X153157705Y-83592057D01*
X152728425Y-83413804D01*
X152263607Y-83413398D01*
X151834015Y-83590901D01*
X151505053Y-83919291D01*
X151497253Y-83938075D01*
X151497238Y-83938037D01*
X151473484Y-83902486D01*
X151305735Y-83807186D01*
X150530921Y-84582000D01*
X150459079Y-84582000D01*
X149684265Y-83807186D01*
X149516516Y-83902486D01*
X149330959Y-84328661D01*
X149322618Y-84793404D01*
X148247100Y-84793404D01*
X148247100Y-83771265D01*
X149720186Y-83771265D01*
X150495000Y-84546079D01*
X151269814Y-83771265D01*
X151174514Y-83603516D01*
X150748339Y-83417959D01*
X150283596Y-83409618D01*
X149851037Y-83579762D01*
X149815486Y-83603516D01*
X149720186Y-83771265D01*
X148247100Y-83771265D01*
X148247100Y-82207100D01*
X199732900Y-82207100D01*
X199732900Y-105117900D01*
X199732900Y-105117900D01*
G37*
X199732900Y-105117900D02*
X148247100Y-105117900D01*
X148247100Y-103964989D01*
X153682498Y-103964989D01*
X153860001Y-104394581D01*
X154188391Y-104723543D01*
X154617671Y-104901796D01*
X155082489Y-104902202D01*
X155512081Y-104724699D01*
X155841043Y-104396309D01*
X156019296Y-103967029D01*
X156019702Y-103502211D01*
X155842199Y-103072619D01*
X155513809Y-102743657D01*
X155084529Y-102565404D01*
X154619711Y-102564998D01*
X154190119Y-102742501D01*
X153861157Y-103070891D01*
X153682904Y-103500171D01*
X153682498Y-103964989D01*
X148247100Y-103964989D01*
X148247100Y-92606614D01*
X149325429Y-92606614D01*
X149443093Y-92896922D01*
X149449896Y-92907104D01*
X149578058Y-92956021D01*
X150078079Y-92456000D01*
X149578058Y-91955979D01*
X149449896Y-92004896D01*
X149327818Y-92293376D01*
X149325429Y-92606614D01*
X148247100Y-92606614D01*
X148247100Y-91341936D01*
X149326464Y-91341936D01*
X149446086Y-91631444D01*
X149647230Y-91832940D01*
X149613979Y-91920058D01*
X150114000Y-92420079D01*
X150614021Y-91920058D01*
X150580683Y-91832712D01*
X150749137Y-91664552D01*
X150905448Y-91821137D01*
X150737060Y-91989230D01*
X150649942Y-91955979D01*
X150149921Y-92456000D01*
X150649942Y-92956021D01*
X150737288Y-92922683D01*
X150905448Y-93091137D01*
X150748863Y-93247448D01*
X150580770Y-93079060D01*
X150614021Y-92991942D01*
X150114000Y-92491921D01*
X149613979Y-92991942D01*
X149647317Y-93079288D01*
X149446864Y-93279391D01*
X149326737Y-93568689D01*
X149326464Y-93881936D01*
X149446086Y-94171444D01*
X149635448Y-94361137D01*
X149446864Y-94549391D01*
X149326737Y-94838689D01*
X149326464Y-95151936D01*
X149446086Y-95441444D01*
X149635448Y-95631137D01*
X149446864Y-95819391D01*
X149326737Y-96108689D01*
X149326464Y-96421936D01*
X149446086Y-96711444D01*
X149667391Y-96933136D01*
X149956689Y-97053263D01*
X150269936Y-97053536D01*
X150559444Y-96933914D01*
X150749137Y-96744552D01*
X150937391Y-96933136D01*
X151226689Y-97053263D01*
X151539936Y-97053536D01*
X151829444Y-96933914D01*
X152051136Y-96712609D01*
X152171263Y-96423311D01*
X152171536Y-96110064D01*
X152051914Y-95820556D01*
X151862552Y-95630863D01*
X152051136Y-95442609D01*
X152171263Y-95153311D01*
X152171536Y-94840064D01*
X152051914Y-94550556D01*
X151862552Y-94360863D01*
X152051136Y-94172609D01*
X152171263Y-93883311D01*
X152171536Y-93570064D01*
X152051914Y-93280556D01*
X151862552Y-93090863D01*
X151900582Y-93052900D01*
X152406756Y-93052900D01*
X154279600Y-94925744D01*
X154279600Y-100012500D01*
X154325036Y-100240924D01*
X154454428Y-100434572D01*
X155775928Y-101756072D01*
X155969576Y-101885464D01*
X156198000Y-101930900D01*
X156794200Y-101930900D01*
X156794200Y-102716023D01*
X156730119Y-102742501D01*
X156401157Y-103070891D01*
X156222904Y-103500171D01*
X156222498Y-103964989D01*
X156400001Y-104394581D01*
X156728391Y-104723543D01*
X157157671Y-104901796D01*
X157622489Y-104902202D01*
X158052081Y-104724699D01*
X158381043Y-104396309D01*
X158559296Y-103967029D01*
X158559297Y-103964989D01*
X158762498Y-103964989D01*
X158940001Y-104394581D01*
X159268391Y-104723543D01*
X159697671Y-104901796D01*
X160162489Y-104902202D01*
X160592081Y-104724699D01*
X160772759Y-104544335D01*
X161696286Y-104544335D01*
X161791586Y-104712084D01*
X162217761Y-104897641D01*
X162682504Y-104905982D01*
X163115063Y-104735838D01*
X163150614Y-104712084D01*
X163245914Y-104544335D01*
X162471100Y-103769521D01*
X161696286Y-104544335D01*
X160772759Y-104544335D01*
X160921043Y-104396309D01*
X161099296Y-103967029D01*
X161099315Y-103945004D01*
X161298718Y-103945004D01*
X161468862Y-104377563D01*
X161492616Y-104413114D01*
X161660365Y-104508414D01*
X162435179Y-103733600D01*
X162507021Y-103733600D01*
X163281835Y-104508414D01*
X163449584Y-104413114D01*
X163635141Y-103986939D01*
X163643482Y-103522196D01*
X163473338Y-103089637D01*
X163449584Y-103054086D01*
X163281835Y-102958786D01*
X162507021Y-103733600D01*
X162435179Y-103733600D01*
X161660365Y-102958786D01*
X161492616Y-103054086D01*
X161307059Y-103480261D01*
X161298718Y-103945004D01*
X161099315Y-103945004D01*
X161099702Y-103502211D01*
X160922199Y-103072619D01*
X160772706Y-102922865D01*
X161696286Y-102922865D01*
X162471100Y-103697679D01*
X163245914Y-102922865D01*
X163150614Y-102755116D01*
X162724439Y-102569559D01*
X162259696Y-102561218D01*
X161827137Y-102731362D01*
X161791586Y-102755116D01*
X161696286Y-102922865D01*
X160772706Y-102922865D01*
X160593809Y-102743657D01*
X160164529Y-102565404D01*
X159699711Y-102564998D01*
X159270119Y-102742501D01*
X158941157Y-103070891D01*
X158762904Y-103500171D01*
X158762498Y-103964989D01*
X158559297Y-103964989D01*
X158559702Y-103502211D01*
X158382199Y-103072619D01*
X158053809Y-102743657D01*
X157988000Y-102716331D01*
X157988000Y-101980433D01*
X158053634Y-101938199D01*
X158058621Y-101930900D01*
X158931685Y-101930900D01*
X158932801Y-101932634D01*
X159026168Y-101996429D01*
X159137000Y-102018873D01*
X159887000Y-102018873D01*
X159990539Y-101999391D01*
X160085634Y-101938199D01*
X160090621Y-101930900D01*
X163715000Y-101930900D01*
X163943424Y-101885464D01*
X164137072Y-101756072D01*
X168697072Y-97196072D01*
X168826464Y-97002424D01*
X168871900Y-96774000D01*
X168871900Y-94937579D01*
X168926522Y-95069775D01*
X169024300Y-95167724D01*
X169024300Y-97753924D01*
X164732712Y-102045512D01*
X164647369Y-102173237D01*
X164647369Y-102173238D01*
X164617400Y-102323900D01*
X164617400Y-102632063D01*
X164350119Y-102742501D01*
X164021157Y-103070891D01*
X163842904Y-103500171D01*
X163842498Y-103964989D01*
X164020001Y-104394581D01*
X164348391Y-104723543D01*
X164777671Y-104901796D01*
X165242489Y-104902202D01*
X165672081Y-104724699D01*
X166001043Y-104396309D01*
X166179296Y-103967029D01*
X166179297Y-103964989D01*
X166382498Y-103964989D01*
X166560001Y-104394581D01*
X166888391Y-104723543D01*
X167317671Y-104901796D01*
X167782489Y-104902202D01*
X168212081Y-104724699D01*
X168541043Y-104396309D01*
X168719296Y-103967029D01*
X168719297Y-103964989D01*
X168922498Y-103964989D01*
X169100001Y-104394581D01*
X169428391Y-104723543D01*
X169857671Y-104901796D01*
X170322489Y-104902202D01*
X170752081Y-104724699D01*
X171081043Y-104396309D01*
X171259296Y-103967029D01*
X171259297Y-103964989D01*
X171462498Y-103964989D01*
X171640001Y-104394581D01*
X171968391Y-104723543D01*
X172397671Y-104901796D01*
X172862489Y-104902202D01*
X173292081Y-104724699D01*
X173621043Y-104396309D01*
X173799296Y-103967029D01*
X173799297Y-103964989D01*
X174002498Y-103964989D01*
X174180001Y-104394581D01*
X174508391Y-104723543D01*
X174937671Y-104901796D01*
X175402489Y-104902202D01*
X175832081Y-104724699D01*
X176161043Y-104396309D01*
X176339296Y-103967029D01*
X176339297Y-103964989D01*
X176542498Y-103964989D01*
X176720001Y-104394581D01*
X177048391Y-104723543D01*
X177477671Y-104901796D01*
X177942489Y-104902202D01*
X178372081Y-104724699D01*
X178701043Y-104396309D01*
X178879296Y-103967029D01*
X178879702Y-103502211D01*
X178702199Y-103072619D01*
X178373809Y-102743657D01*
X177944529Y-102565404D01*
X177479711Y-102564998D01*
X177050119Y-102742501D01*
X176721157Y-103070891D01*
X176542904Y-103500171D01*
X176542498Y-103964989D01*
X176339297Y-103964989D01*
X176339702Y-103502211D01*
X176162199Y-103072619D01*
X175833809Y-102743657D01*
X175404529Y-102565404D01*
X174939711Y-102564998D01*
X174510119Y-102742501D01*
X174181157Y-103070891D01*
X174002904Y-103500171D01*
X174002498Y-103964989D01*
X173799297Y-103964989D01*
X173799702Y-103502211D01*
X173622199Y-103072619D01*
X173293809Y-102743657D01*
X172864529Y-102565404D01*
X172399711Y-102564998D01*
X171970119Y-102742501D01*
X171641157Y-103070891D01*
X171462904Y-103500171D01*
X171462498Y-103964989D01*
X171259297Y-103964989D01*
X171259702Y-103502211D01*
X171082199Y-103072619D01*
X170753809Y-102743657D01*
X170324529Y-102565404D01*
X169859711Y-102564998D01*
X169430119Y-102742501D01*
X169101157Y-103070891D01*
X168922904Y-103500171D01*
X168922498Y-103964989D01*
X168719297Y-103964989D01*
X168719702Y-103502211D01*
X168542199Y-103072619D01*
X168213809Y-102743657D01*
X167784529Y-102565404D01*
X167319711Y-102564998D01*
X166890119Y-102742501D01*
X166561157Y-103070891D01*
X166382904Y-103500171D01*
X166382498Y-103964989D01*
X166179297Y-103964989D01*
X166179702Y-103502211D01*
X166002199Y-103072619D01*
X165673809Y-102743657D01*
X165404800Y-102631954D01*
X165404800Y-102486976D01*
X169696388Y-98195388D01*
X169781731Y-98067662D01*
X169811700Y-97917000D01*
X169811700Y-95167668D01*
X169908905Y-95070632D01*
X169997299Y-94857755D01*
X169997500Y-94627256D01*
X169909478Y-94414225D01*
X169746632Y-94251095D01*
X169533755Y-94162701D01*
X169303256Y-94162500D01*
X169090225Y-94250522D01*
X168927095Y-94413368D01*
X168871900Y-94546293D01*
X168871900Y-94100244D01*
X169665244Y-93306900D01*
X175393756Y-93306900D01*
X176488928Y-94402072D01*
X176563187Y-94451690D01*
X176582368Y-94470905D01*
X176607662Y-94481408D01*
X176682576Y-94531464D01*
X176770172Y-94548888D01*
X176795245Y-94559299D01*
X176822633Y-94559323D01*
X176911000Y-94576900D01*
X176998595Y-94559476D01*
X177025744Y-94559500D01*
X177051056Y-94549041D01*
X177139424Y-94531464D01*
X177213682Y-94481846D01*
X177238775Y-94471478D01*
X177258160Y-94452127D01*
X177333072Y-94402072D01*
X177382690Y-94327813D01*
X177401905Y-94308632D01*
X177412408Y-94283338D01*
X177462464Y-94208424D01*
X177479888Y-94120828D01*
X177490299Y-94095755D01*
X177490323Y-94068367D01*
X177507900Y-93980000D01*
X177490476Y-93892405D01*
X177490500Y-93865256D01*
X177480041Y-93839944D01*
X177462464Y-93751576D01*
X177412846Y-93677318D01*
X177402478Y-93652225D01*
X177383127Y-93632840D01*
X177333072Y-93557928D01*
X176381758Y-92606614D01*
X195299429Y-92606614D01*
X195417093Y-92896922D01*
X195423896Y-92907104D01*
X195552058Y-92956021D01*
X196052079Y-92456000D01*
X195552058Y-91955979D01*
X195423896Y-92004896D01*
X195301818Y-92293376D01*
X195299429Y-92606614D01*
X176381758Y-92606614D01*
X176063072Y-92287928D01*
X175869424Y-92158536D01*
X175641000Y-92113100D01*
X169418000Y-92113100D01*
X169189576Y-92158536D01*
X168995928Y-92287928D01*
X167852928Y-93430928D01*
X167723536Y-93624576D01*
X167678100Y-93853000D01*
X167678100Y-96526756D01*
X163467756Y-100737100D01*
X161905544Y-100737100D01*
X162283572Y-100359072D01*
X162412964Y-100165424D01*
X162458400Y-99937000D01*
X162458400Y-97846744D01*
X170820244Y-89484900D01*
X195507685Y-89484900D01*
X195508801Y-89486634D01*
X195602168Y-89550429D01*
X195713000Y-89572873D01*
X196463000Y-89572873D01*
X196566539Y-89553391D01*
X196661634Y-89492199D01*
X196666621Y-89484900D01*
X197539685Y-89484900D01*
X197540801Y-89486634D01*
X197634168Y-89550429D01*
X197745000Y-89572873D01*
X197960729Y-89572873D01*
X198285100Y-89897244D01*
X198285100Y-91700756D01*
X198126756Y-91859100D01*
X197874722Y-91859100D01*
X197836552Y-91820863D01*
X198025136Y-91632609D01*
X198145263Y-91343311D01*
X198145536Y-91030064D01*
X198025914Y-90740556D01*
X197804609Y-90518864D01*
X197515311Y-90398737D01*
X197202064Y-90398464D01*
X196912556Y-90518086D01*
X196722863Y-90707448D01*
X196534609Y-90518864D01*
X196245311Y-90398737D01*
X195932064Y-90398464D01*
X195642556Y-90518086D01*
X195420864Y-90739391D01*
X195300737Y-91028689D01*
X195300464Y-91341936D01*
X195420086Y-91631444D01*
X195621230Y-91832940D01*
X195587979Y-91920058D01*
X196088000Y-92420079D01*
X196588021Y-91920058D01*
X196554683Y-91832712D01*
X196723137Y-91664552D01*
X196879448Y-91821137D01*
X196711060Y-91989230D01*
X196623942Y-91955979D01*
X196123921Y-92456000D01*
X196623942Y-92956021D01*
X196711288Y-92922683D01*
X196879448Y-93091137D01*
X196722863Y-93247448D01*
X196554770Y-93079060D01*
X196588021Y-92991942D01*
X196088000Y-92491921D01*
X195587979Y-92991942D01*
X195621317Y-93079288D01*
X195420864Y-93279391D01*
X195300737Y-93568689D01*
X195300464Y-93881936D01*
X195420086Y-94171444D01*
X195609448Y-94361137D01*
X195420864Y-94549391D01*
X195300737Y-94838689D01*
X195300464Y-95151936D01*
X195420086Y-95441444D01*
X195609448Y-95631137D01*
X195444196Y-95796100D01*
X181610000Y-95796100D01*
X181430177Y-95831869D01*
X181277731Y-95933730D01*
X179918831Y-97292631D01*
X179816969Y-97445077D01*
X179781200Y-97624900D01*
X179781200Y-102599161D01*
X178777900Y-101595862D01*
X178777900Y-96869600D01*
X178798905Y-96848632D01*
X178887299Y-96635755D01*
X178887500Y-96405256D01*
X178799478Y-96192225D01*
X178636632Y-96029095D01*
X178423755Y-95940701D01*
X178193256Y-95940500D01*
X177980225Y-96028522D01*
X177817095Y-96191368D01*
X177728701Y-96404245D01*
X177728500Y-96634744D01*
X177816522Y-96847775D01*
X177838100Y-96869391D01*
X177838100Y-101790500D01*
X177866372Y-101932634D01*
X177873869Y-101970323D01*
X177975731Y-102122769D01*
X179162190Y-103309229D01*
X179082904Y-103500171D01*
X179082498Y-103964989D01*
X179260001Y-104394581D01*
X179588391Y-104723543D01*
X180017671Y-104901796D01*
X180482489Y-104902202D01*
X180912081Y-104724699D01*
X181241043Y-104396309D01*
X181419296Y-103967029D01*
X181419702Y-103502211D01*
X181242199Y-103072619D01*
X180913809Y-102743657D01*
X180721000Y-102663596D01*
X180721000Y-97819538D01*
X181804639Y-96735900D01*
X195444499Y-96735900D01*
X195641391Y-96933136D01*
X195930689Y-97053263D01*
X196243936Y-97053536D01*
X196533444Y-96933914D01*
X196723137Y-96744552D01*
X196888100Y-96909804D01*
X196888100Y-97087361D01*
X196401362Y-97574100D01*
X186563000Y-97574100D01*
X186383177Y-97609869D01*
X186230730Y-97711731D01*
X182458831Y-101483631D01*
X182356969Y-101636077D01*
X182333900Y-101752053D01*
X182333900Y-99762638D01*
X183727065Y-98369474D01*
X183756744Y-98369500D01*
X183969775Y-98281478D01*
X184132905Y-98118632D01*
X184221299Y-97905755D01*
X184221500Y-97675256D01*
X184133478Y-97462225D01*
X183970632Y-97299095D01*
X183757755Y-97210701D01*
X183527256Y-97210500D01*
X183314225Y-97298522D01*
X183151095Y-97461368D01*
X183062701Y-97674245D01*
X183062674Y-97704787D01*
X181531731Y-99235731D01*
X181429869Y-99388177D01*
X181394100Y-99568000D01*
X181394100Y-102806500D01*
X181419563Y-102934512D01*
X181429869Y-102986323D01*
X181531731Y-103138769D01*
X181702190Y-103309229D01*
X181622904Y-103500171D01*
X181622498Y-103964989D01*
X181800001Y-104394581D01*
X182128391Y-104723543D01*
X182557671Y-104901796D01*
X183022489Y-104902202D01*
X183452081Y-104724699D01*
X183781043Y-104396309D01*
X183959296Y-103967029D01*
X183959702Y-103502211D01*
X183782199Y-103072619D01*
X183453809Y-102743657D01*
X183261000Y-102663596D01*
X183261000Y-102010538D01*
X186757639Y-98513900D01*
X196596000Y-98513900D01*
X196775823Y-98478131D01*
X196928269Y-98376269D01*
X197690270Y-97614269D01*
X197792131Y-97461823D01*
X197827900Y-97282000D01*
X197827900Y-96909501D01*
X198025136Y-96712609D01*
X198145263Y-96423311D01*
X198145536Y-96110064D01*
X198025914Y-95820556D01*
X197836552Y-95630863D01*
X198001804Y-95465900D01*
X198179362Y-95465900D01*
X198412100Y-95698639D01*
X198412100Y-97595361D01*
X196401362Y-99606100D01*
X187706000Y-99606100D01*
X187526177Y-99641869D01*
X187373731Y-99743730D01*
X184998831Y-102118631D01*
X184896969Y-102271077D01*
X184861200Y-102450900D01*
X184861200Y-102663548D01*
X184670119Y-102742501D01*
X184341157Y-103070891D01*
X184162904Y-103500171D01*
X184162498Y-103964989D01*
X184340001Y-104394581D01*
X184668391Y-104723543D01*
X185097671Y-104901796D01*
X185562489Y-104902202D01*
X185992081Y-104724699D01*
X186321043Y-104396309D01*
X186499296Y-103967029D01*
X186499297Y-103964989D01*
X186702498Y-103964989D01*
X186880001Y-104394581D01*
X187208391Y-104723543D01*
X187637671Y-104901796D01*
X188102489Y-104902202D01*
X188532081Y-104724699D01*
X188861043Y-104396309D01*
X189039296Y-103967029D01*
X189039297Y-103964989D01*
X189242498Y-103964989D01*
X189420001Y-104394581D01*
X189748391Y-104723543D01*
X190177671Y-104901796D01*
X190642489Y-104902202D01*
X191072081Y-104724699D01*
X191401043Y-104396309D01*
X191579296Y-103967029D01*
X191579297Y-103964989D01*
X191782498Y-103964989D01*
X191960001Y-104394581D01*
X192288391Y-104723543D01*
X192717671Y-104901796D01*
X193182489Y-104902202D01*
X193612081Y-104724699D01*
X193941043Y-104396309D01*
X194119296Y-103967029D01*
X194119702Y-103502211D01*
X193942199Y-103072619D01*
X193613809Y-102743657D01*
X193184529Y-102565404D01*
X192719711Y-102564998D01*
X192290119Y-102742501D01*
X191961157Y-103070891D01*
X191782904Y-103500171D01*
X191782498Y-103964989D01*
X191579297Y-103964989D01*
X191579702Y-103502211D01*
X191402199Y-103072619D01*
X191073809Y-102743657D01*
X190644529Y-102565404D01*
X190179711Y-102564998D01*
X189750119Y-102742501D01*
X189421157Y-103070891D01*
X189242904Y-103500171D01*
X189242498Y-103964989D01*
X189039297Y-103964989D01*
X189039702Y-103502211D01*
X188862199Y-103072619D01*
X188533809Y-102743657D01*
X188104529Y-102565404D01*
X187639711Y-102564998D01*
X187210119Y-102742501D01*
X186881157Y-103070891D01*
X186702904Y-103500171D01*
X186702498Y-103964989D01*
X186499297Y-103964989D01*
X186499702Y-103502211D01*
X186322199Y-103072619D01*
X185993809Y-102743657D01*
X185801000Y-102663596D01*
X185801000Y-102645538D01*
X187900639Y-100545900D01*
X196596000Y-100545900D01*
X196775823Y-100510131D01*
X196928269Y-100408269D01*
X199214269Y-98122270D01*
X199316131Y-97969823D01*
X199344356Y-97827924D01*
X199351900Y-97790000D01*
X199351900Y-95504000D01*
X199316131Y-95324177D01*
X199283539Y-95275400D01*
X199214269Y-95171730D01*
X198706269Y-94663731D01*
X198553823Y-94561869D01*
X198541913Y-94559500D01*
X198374000Y-94526100D01*
X198001501Y-94526100D01*
X197836552Y-94360863D01*
X198025136Y-94172609D01*
X198145263Y-93883311D01*
X198145536Y-93570064D01*
X198025914Y-93280556D01*
X197836552Y-93090863D01*
X197874582Y-93052900D01*
X198374000Y-93052900D01*
X198602424Y-93007464D01*
X198796072Y-92878072D01*
X199304072Y-92370072D01*
X199433464Y-92176424D01*
X199478900Y-91948000D01*
X199478900Y-89650000D01*
X199433464Y-89421576D01*
X199304072Y-89227928D01*
X198779873Y-88703729D01*
X198779873Y-88488000D01*
X198760391Y-88384461D01*
X198699199Y-88289366D01*
X198605832Y-88225571D01*
X198495000Y-88203127D01*
X197745000Y-88203127D01*
X197641461Y-88222609D01*
X197546366Y-88283801D01*
X197541379Y-88291100D01*
X196668315Y-88291100D01*
X196667199Y-88289366D01*
X196573832Y-88225571D01*
X196463000Y-88203127D01*
X195713000Y-88203127D01*
X195609461Y-88222609D01*
X195514366Y-88283801D01*
X195509379Y-88291100D01*
X170573000Y-88291100D01*
X170344576Y-88336536D01*
X170150928Y-88465928D01*
X161439428Y-97177428D01*
X161310036Y-97371076D01*
X161264600Y-97599500D01*
X161264600Y-99689756D01*
X160217256Y-100737100D01*
X160092315Y-100737100D01*
X160091199Y-100735366D01*
X159997832Y-100671571D01*
X159887000Y-100649127D01*
X159137000Y-100649127D01*
X159033461Y-100668609D01*
X158938366Y-100729801D01*
X158933379Y-100737100D01*
X158060315Y-100737100D01*
X158059199Y-100735366D01*
X157965832Y-100671571D01*
X157855000Y-100649127D01*
X157105000Y-100649127D01*
X157001461Y-100668609D01*
X156906366Y-100729801D01*
X156901379Y-100737100D01*
X156445244Y-100737100D01*
X155637394Y-99929250D01*
X156825600Y-99929250D01*
X156825600Y-100289576D01*
X156868136Y-100392267D01*
X156946733Y-100470864D01*
X157049424Y-100513400D01*
X157384750Y-100513400D01*
X157454600Y-100443550D01*
X157454600Y-99859400D01*
X157505400Y-99859400D01*
X157505400Y-100443550D01*
X157575250Y-100513400D01*
X157910576Y-100513400D01*
X158013267Y-100470864D01*
X158091864Y-100392267D01*
X158134400Y-100289576D01*
X158134400Y-99929250D01*
X158857600Y-99929250D01*
X158857600Y-100289576D01*
X158900136Y-100392267D01*
X158978733Y-100470864D01*
X159081424Y-100513400D01*
X159416750Y-100513400D01*
X159486600Y-100443550D01*
X159486600Y-99859400D01*
X159537400Y-99859400D01*
X159537400Y-100443550D01*
X159607250Y-100513400D01*
X159942576Y-100513400D01*
X160045267Y-100470864D01*
X160123864Y-100392267D01*
X160166400Y-100289576D01*
X160166400Y-99929250D01*
X160096550Y-99859400D01*
X159537400Y-99859400D01*
X159486600Y-99859400D01*
X158927450Y-99859400D01*
X158857600Y-99929250D01*
X158134400Y-99929250D01*
X158064550Y-99859400D01*
X157505400Y-99859400D01*
X157454600Y-99859400D01*
X156895450Y-99859400D01*
X156825600Y-99929250D01*
X155637394Y-99929250D01*
X155473400Y-99765256D01*
X155473400Y-99378424D01*
X156825600Y-99378424D01*
X156825600Y-99738750D01*
X156895450Y-99808600D01*
X157454600Y-99808600D01*
X157454600Y-99224450D01*
X157505400Y-99224450D01*
X157505400Y-99808600D01*
X158064550Y-99808600D01*
X158134400Y-99738750D01*
X158134400Y-99378424D01*
X158857600Y-99378424D01*
X158857600Y-99738750D01*
X158927450Y-99808600D01*
X159486600Y-99808600D01*
X159486600Y-99224450D01*
X159537400Y-99224450D01*
X159537400Y-99808600D01*
X160096550Y-99808600D01*
X160166400Y-99738750D01*
X160166400Y-99378424D01*
X160123864Y-99275733D01*
X160045267Y-99197136D01*
X159942576Y-99154600D01*
X159607250Y-99154600D01*
X159537400Y-99224450D01*
X159486600Y-99224450D01*
X159416750Y-99154600D01*
X159081424Y-99154600D01*
X158978733Y-99197136D01*
X158900136Y-99275733D01*
X158857600Y-99378424D01*
X158134400Y-99378424D01*
X158091864Y-99275733D01*
X158013267Y-99197136D01*
X157910576Y-99154600D01*
X157575250Y-99154600D01*
X157505400Y-99224450D01*
X157454600Y-99224450D01*
X157384750Y-99154600D01*
X157049424Y-99154600D01*
X156946733Y-99197136D01*
X156868136Y-99275733D01*
X156825600Y-99378424D01*
X155473400Y-99378424D01*
X155473400Y-94678500D01*
X155427964Y-94450076D01*
X155298572Y-94256428D01*
X153498144Y-92456000D01*
X153675244Y-92278900D01*
X154359685Y-92278900D01*
X154360801Y-92280634D01*
X154454168Y-92344429D01*
X154565000Y-92366873D01*
X155315000Y-92366873D01*
X155418539Y-92347391D01*
X155513634Y-92286199D01*
X155518621Y-92278900D01*
X156645685Y-92278900D01*
X156646801Y-92280634D01*
X156740168Y-92344429D01*
X156851000Y-92366873D01*
X157601000Y-92366873D01*
X157704539Y-92347391D01*
X157799634Y-92286199D01*
X157863429Y-92192832D01*
X157885873Y-92082000D01*
X157885873Y-91282000D01*
X157866391Y-91178461D01*
X157805199Y-91083366D01*
X157711832Y-91019571D01*
X157601000Y-90997127D01*
X156851000Y-90997127D01*
X156747461Y-91016609D01*
X156652366Y-91077801D01*
X156647379Y-91085100D01*
X155520315Y-91085100D01*
X155519199Y-91083366D01*
X155425832Y-91019571D01*
X155315000Y-90997127D01*
X154565000Y-90997127D01*
X154461461Y-91016609D01*
X154366366Y-91077801D01*
X154361379Y-91085100D01*
X153428000Y-91085100D01*
X153199576Y-91130536D01*
X153005928Y-91259928D01*
X152406756Y-91859100D01*
X151900722Y-91859100D01*
X151862552Y-91820863D01*
X152051136Y-91632609D01*
X152171263Y-91343311D01*
X152171536Y-91030064D01*
X152051914Y-90740556D01*
X151830609Y-90518864D01*
X151541311Y-90398737D01*
X151228064Y-90398464D01*
X150938556Y-90518086D01*
X150748863Y-90707448D01*
X150560609Y-90518864D01*
X150271311Y-90398737D01*
X149958064Y-90398464D01*
X149668556Y-90518086D01*
X149446864Y-90739391D01*
X149326737Y-91028689D01*
X149326464Y-91341936D01*
X148247100Y-91341936D01*
X148247100Y-90277250D01*
X154285600Y-90277250D01*
X154285600Y-90637576D01*
X154328136Y-90740267D01*
X154406733Y-90818864D01*
X154509424Y-90861400D01*
X154844750Y-90861400D01*
X154914600Y-90791550D01*
X154914600Y-90207400D01*
X154965400Y-90207400D01*
X154965400Y-90791550D01*
X155035250Y-90861400D01*
X155370576Y-90861400D01*
X155473267Y-90818864D01*
X155551864Y-90740267D01*
X155594400Y-90637576D01*
X155594400Y-90277250D01*
X156571600Y-90277250D01*
X156571600Y-90637576D01*
X156614136Y-90740267D01*
X156692733Y-90818864D01*
X156795424Y-90861400D01*
X157130750Y-90861400D01*
X157200600Y-90791550D01*
X157200600Y-90207400D01*
X157251400Y-90207400D01*
X157251400Y-90791550D01*
X157321250Y-90861400D01*
X157656576Y-90861400D01*
X157759267Y-90818864D01*
X157837864Y-90740267D01*
X157880400Y-90637576D01*
X157880400Y-90277250D01*
X157810550Y-90207400D01*
X157251400Y-90207400D01*
X157200600Y-90207400D01*
X156641450Y-90207400D01*
X156571600Y-90277250D01*
X155594400Y-90277250D01*
X155524550Y-90207400D01*
X154965400Y-90207400D01*
X154914600Y-90207400D01*
X154355450Y-90207400D01*
X154285600Y-90277250D01*
X148247100Y-90277250D01*
X148247100Y-89726424D01*
X154285600Y-89726424D01*
X154285600Y-90086750D01*
X154355450Y-90156600D01*
X154914600Y-90156600D01*
X154914600Y-89572450D01*
X154965400Y-89572450D01*
X154965400Y-90156600D01*
X155524550Y-90156600D01*
X155594400Y-90086750D01*
X155594400Y-89726424D01*
X156571600Y-89726424D01*
X156571600Y-90086750D01*
X156641450Y-90156600D01*
X157200600Y-90156600D01*
X157200600Y-89572450D01*
X157251400Y-89572450D01*
X157251400Y-90156600D01*
X157810550Y-90156600D01*
X157880400Y-90086750D01*
X157880400Y-89726424D01*
X157837864Y-89623733D01*
X157759267Y-89545136D01*
X157656576Y-89502600D01*
X157321250Y-89502600D01*
X157251400Y-89572450D01*
X157200600Y-89572450D01*
X157130750Y-89502600D01*
X156795424Y-89502600D01*
X156692733Y-89545136D01*
X156614136Y-89623733D01*
X156571600Y-89726424D01*
X155594400Y-89726424D01*
X155551864Y-89623733D01*
X155473267Y-89545136D01*
X155370576Y-89502600D01*
X155035250Y-89502600D01*
X154965400Y-89572450D01*
X154914600Y-89572450D01*
X154844750Y-89502600D01*
X154509424Y-89502600D01*
X154406733Y-89545136D01*
X154328136Y-89623733D01*
X154285600Y-89726424D01*
X148247100Y-89726424D01*
X148247100Y-85392735D01*
X149720186Y-85392735D01*
X149815486Y-85560484D01*
X150241661Y-85746041D01*
X150706404Y-85754382D01*
X151138963Y-85584238D01*
X151174514Y-85560484D01*
X151269814Y-85392735D01*
X150495000Y-84617921D01*
X149720186Y-85392735D01*
X148247100Y-85392735D01*
X148247100Y-84793404D01*
X149322618Y-84793404D01*
X149492762Y-85225963D01*
X149516516Y-85261514D01*
X149684265Y-85356814D01*
X150459079Y-84582000D01*
X150530921Y-84582000D01*
X151305735Y-85356814D01*
X151473484Y-85261514D01*
X151493018Y-85216651D01*
X151503897Y-85242981D01*
X151832287Y-85571943D01*
X152261567Y-85750196D01*
X152726385Y-85750602D01*
X153155977Y-85573099D01*
X153484939Y-85244709D01*
X153512265Y-85178900D01*
X155988627Y-85178900D01*
X155988627Y-86296500D01*
X156008109Y-86400039D01*
X156069301Y-86495134D01*
X156162668Y-86558929D01*
X156273500Y-86581373D01*
X157416500Y-86581373D01*
X157520039Y-86561891D01*
X157615134Y-86500699D01*
X157678929Y-86407332D01*
X157701373Y-86296500D01*
X157701373Y-82613500D01*
X157988623Y-82613500D01*
X157988623Y-86296500D01*
X158008105Y-86400039D01*
X158069297Y-86495134D01*
X158162664Y-86558929D01*
X158273223Y-86581318D01*
X158293532Y-86683420D01*
X158422924Y-86877068D01*
X159597928Y-88052072D01*
X159791576Y-88181464D01*
X160020000Y-88226900D01*
X163830000Y-88226900D01*
X164058424Y-88181464D01*
X164252072Y-88052072D01*
X164820894Y-87483250D01*
X195433600Y-87483250D01*
X195433600Y-87843576D01*
X195476136Y-87946267D01*
X195554733Y-88024864D01*
X195657424Y-88067400D01*
X195992750Y-88067400D01*
X196062600Y-87997550D01*
X196062600Y-87413400D01*
X196113400Y-87413400D01*
X196113400Y-87997550D01*
X196183250Y-88067400D01*
X196518576Y-88067400D01*
X196621267Y-88024864D01*
X196699864Y-87946267D01*
X196742400Y-87843576D01*
X196742400Y-87483250D01*
X197465600Y-87483250D01*
X197465600Y-87843576D01*
X197508136Y-87946267D01*
X197586733Y-88024864D01*
X197689424Y-88067400D01*
X198024750Y-88067400D01*
X198094600Y-87997550D01*
X198094600Y-87413400D01*
X198145400Y-87413400D01*
X198145400Y-87997550D01*
X198215250Y-88067400D01*
X198550576Y-88067400D01*
X198653267Y-88024864D01*
X198731864Y-87946267D01*
X198774400Y-87843576D01*
X198774400Y-87483250D01*
X198704550Y-87413400D01*
X198145400Y-87413400D01*
X198094600Y-87413400D01*
X197535450Y-87413400D01*
X197465600Y-87483250D01*
X196742400Y-87483250D01*
X196672550Y-87413400D01*
X196113400Y-87413400D01*
X196062600Y-87413400D01*
X195503450Y-87413400D01*
X195433600Y-87483250D01*
X164820894Y-87483250D01*
X165371720Y-86932424D01*
X195433600Y-86932424D01*
X195433600Y-87292750D01*
X195503450Y-87362600D01*
X196062600Y-87362600D01*
X196062600Y-86778450D01*
X196113400Y-86778450D01*
X196113400Y-87362600D01*
X196672550Y-87362600D01*
X196742400Y-87292750D01*
X196742400Y-86932424D01*
X197465600Y-86932424D01*
X197465600Y-87292750D01*
X197535450Y-87362600D01*
X198094600Y-87362600D01*
X198094600Y-86778450D01*
X198145400Y-86778450D01*
X198145400Y-87362600D01*
X198704550Y-87362600D01*
X198774400Y-87292750D01*
X198774400Y-86932424D01*
X198731864Y-86829733D01*
X198653267Y-86751136D01*
X198550576Y-86708600D01*
X198215250Y-86708600D01*
X198145400Y-86778450D01*
X198094600Y-86778450D01*
X198024750Y-86708600D01*
X197689424Y-86708600D01*
X197586733Y-86751136D01*
X197508136Y-86829733D01*
X197465600Y-86932424D01*
X196742400Y-86932424D01*
X196699864Y-86829733D01*
X196621267Y-86751136D01*
X196518576Y-86708600D01*
X196183250Y-86708600D01*
X196113400Y-86778450D01*
X196062600Y-86778450D01*
X195992750Y-86708600D01*
X195657424Y-86708600D01*
X195554733Y-86751136D01*
X195476136Y-86829733D01*
X195433600Y-86932424D01*
X165371720Y-86932424D01*
X165433172Y-86870972D01*
X165562564Y-86677324D01*
X165608000Y-86448900D01*
X165608000Y-84431177D01*
X165672081Y-84404699D01*
X166001043Y-84076309D01*
X166179296Y-83647029D01*
X166179297Y-83644989D01*
X166382498Y-83644989D01*
X166560001Y-84074581D01*
X166888391Y-84403543D01*
X167317671Y-84581796D01*
X167782489Y-84582202D01*
X168212081Y-84404699D01*
X168541043Y-84076309D01*
X168719296Y-83647029D01*
X168719297Y-83644989D01*
X168922498Y-83644989D01*
X169100001Y-84074581D01*
X169428391Y-84403543D01*
X169857671Y-84581796D01*
X170322489Y-84582202D01*
X170752081Y-84404699D01*
X171081043Y-84076309D01*
X171259296Y-83647029D01*
X171259297Y-83644989D01*
X171462498Y-83644989D01*
X171640001Y-84074581D01*
X171968391Y-84403543D01*
X172397671Y-84581796D01*
X172862489Y-84582202D01*
X173292081Y-84404699D01*
X173621043Y-84076309D01*
X173799296Y-83647029D01*
X173799297Y-83644989D01*
X174002498Y-83644989D01*
X174180001Y-84074581D01*
X174508391Y-84403543D01*
X174937671Y-84581796D01*
X175402489Y-84582202D01*
X175832081Y-84404699D01*
X176161043Y-84076309D01*
X176339296Y-83647029D01*
X176339297Y-83644989D01*
X176542498Y-83644989D01*
X176720001Y-84074581D01*
X177048391Y-84403543D01*
X177477671Y-84581796D01*
X177942489Y-84582202D01*
X178372081Y-84404699D01*
X178701043Y-84076309D01*
X178879296Y-83647029D01*
X178879297Y-83644989D01*
X179082498Y-83644989D01*
X179260001Y-84074581D01*
X179588391Y-84403543D01*
X180017671Y-84581796D01*
X180482489Y-84582202D01*
X180912081Y-84404699D01*
X181241043Y-84076309D01*
X181419296Y-83647029D01*
X181419297Y-83644989D01*
X181622498Y-83644989D01*
X181800001Y-84074581D01*
X182128391Y-84403543D01*
X182557671Y-84581796D01*
X183022489Y-84582202D01*
X183452081Y-84404699D01*
X183781043Y-84076309D01*
X183959296Y-83647029D01*
X183959297Y-83644989D01*
X184162498Y-83644989D01*
X184340001Y-84074581D01*
X184668391Y-84403543D01*
X185097671Y-84581796D01*
X185562489Y-84582202D01*
X185992081Y-84404699D01*
X186321043Y-84076309D01*
X186499296Y-83647029D01*
X186499297Y-83644989D01*
X186702498Y-83644989D01*
X186880001Y-84074581D01*
X187208391Y-84403543D01*
X187637671Y-84581796D01*
X188102489Y-84582202D01*
X188532081Y-84404699D01*
X188861043Y-84076309D01*
X189039296Y-83647029D01*
X189039297Y-83644989D01*
X189242498Y-83644989D01*
X189420001Y-84074581D01*
X189748391Y-84403543D01*
X190177671Y-84581796D01*
X190642489Y-84582202D01*
X191072081Y-84404699D01*
X191401043Y-84076309D01*
X191579296Y-83647029D01*
X191579297Y-83644989D01*
X191782498Y-83644989D01*
X191960001Y-84074581D01*
X192288391Y-84403543D01*
X192717671Y-84581796D01*
X193182489Y-84582202D01*
X193612081Y-84404699D01*
X193941043Y-84076309D01*
X194119296Y-83647029D01*
X194119702Y-83182211D01*
X193942199Y-82752619D01*
X193613809Y-82423657D01*
X193184529Y-82245404D01*
X192719711Y-82244998D01*
X192290119Y-82422501D01*
X191961157Y-82750891D01*
X191782904Y-83180171D01*
X191782498Y-83644989D01*
X191579297Y-83644989D01*
X191579702Y-83182211D01*
X191402199Y-82752619D01*
X191073809Y-82423657D01*
X190644529Y-82245404D01*
X190179711Y-82244998D01*
X189750119Y-82422501D01*
X189421157Y-82750891D01*
X189242904Y-83180171D01*
X189242498Y-83644989D01*
X189039297Y-83644989D01*
X189039702Y-83182211D01*
X188862199Y-82752619D01*
X188533809Y-82423657D01*
X188104529Y-82245404D01*
X187639711Y-82244998D01*
X187210119Y-82422501D01*
X186881157Y-82750891D01*
X186702904Y-83180171D01*
X186702498Y-83644989D01*
X186499297Y-83644989D01*
X186499702Y-83182211D01*
X186322199Y-82752619D01*
X185993809Y-82423657D01*
X185564529Y-82245404D01*
X185099711Y-82244998D01*
X184670119Y-82422501D01*
X184341157Y-82750891D01*
X184162904Y-83180171D01*
X184162498Y-83644989D01*
X183959297Y-83644989D01*
X183959702Y-83182211D01*
X183782199Y-82752619D01*
X183453809Y-82423657D01*
X183024529Y-82245404D01*
X182559711Y-82244998D01*
X182130119Y-82422501D01*
X181801157Y-82750891D01*
X181622904Y-83180171D01*
X181622498Y-83644989D01*
X181419297Y-83644989D01*
X181419702Y-83182211D01*
X181242199Y-82752619D01*
X180913809Y-82423657D01*
X180484529Y-82245404D01*
X180019711Y-82244998D01*
X179590119Y-82422501D01*
X179261157Y-82750891D01*
X179082904Y-83180171D01*
X179082498Y-83644989D01*
X178879297Y-83644989D01*
X178879702Y-83182211D01*
X178702199Y-82752619D01*
X178373809Y-82423657D01*
X177944529Y-82245404D01*
X177479711Y-82244998D01*
X177050119Y-82422501D01*
X176721157Y-82750891D01*
X176542904Y-83180171D01*
X176542498Y-83644989D01*
X176339297Y-83644989D01*
X176339702Y-83182211D01*
X176162199Y-82752619D01*
X175833809Y-82423657D01*
X175404529Y-82245404D01*
X174939711Y-82244998D01*
X174510119Y-82422501D01*
X174181157Y-82750891D01*
X174002904Y-83180171D01*
X174002498Y-83644989D01*
X173799297Y-83644989D01*
X173799702Y-83182211D01*
X173622199Y-82752619D01*
X173293809Y-82423657D01*
X172864529Y-82245404D01*
X172399711Y-82244998D01*
X171970119Y-82422501D01*
X171641157Y-82750891D01*
X171462904Y-83180171D01*
X171462498Y-83644989D01*
X171259297Y-83644989D01*
X171259702Y-83182211D01*
X171082199Y-82752619D01*
X170753809Y-82423657D01*
X170324529Y-82245404D01*
X169859711Y-82244998D01*
X169430119Y-82422501D01*
X169101157Y-82750891D01*
X168922904Y-83180171D01*
X168922498Y-83644989D01*
X168719297Y-83644989D01*
X168719702Y-83182211D01*
X168542199Y-82752619D01*
X168213809Y-82423657D01*
X167784529Y-82245404D01*
X167319711Y-82244998D01*
X166890119Y-82422501D01*
X166561157Y-82750891D01*
X166382904Y-83180171D01*
X166382498Y-83644989D01*
X166179297Y-83644989D01*
X166179702Y-83182211D01*
X166002199Y-82752619D01*
X165673809Y-82423657D01*
X165244529Y-82245404D01*
X164779711Y-82244998D01*
X164350119Y-82422501D01*
X164021157Y-82750891D01*
X163842904Y-83180171D01*
X163842498Y-83644989D01*
X164020001Y-84074581D01*
X164348391Y-84403543D01*
X164414200Y-84430869D01*
X164414200Y-86201656D01*
X163582756Y-87033100D01*
X160267244Y-87033100D01*
X159663724Y-86429580D01*
X159678925Y-86407332D01*
X159701369Y-86296500D01*
X159701369Y-82613500D01*
X159988619Y-82613500D01*
X159988619Y-86296500D01*
X160008101Y-86400039D01*
X160069293Y-86495134D01*
X160162660Y-86558929D01*
X160273492Y-86581373D01*
X161416492Y-86581373D01*
X161520031Y-86561891D01*
X161615126Y-86500699D01*
X161678921Y-86407332D01*
X161701365Y-86296500D01*
X161701365Y-82613500D01*
X161681883Y-82509961D01*
X161620691Y-82414866D01*
X161527324Y-82351071D01*
X161416492Y-82328627D01*
X160273492Y-82328627D01*
X160169953Y-82348109D01*
X160074858Y-82409301D01*
X160011063Y-82502668D01*
X159988619Y-82613500D01*
X159701369Y-82613500D01*
X159681887Y-82509961D01*
X159620695Y-82414866D01*
X159527328Y-82351071D01*
X159416496Y-82328627D01*
X158273496Y-82328627D01*
X158169957Y-82348109D01*
X158074862Y-82409301D01*
X158011067Y-82502668D01*
X157988623Y-82613500D01*
X157701373Y-82613500D01*
X157681891Y-82509961D01*
X157620699Y-82414866D01*
X157527332Y-82351071D01*
X157416500Y-82328627D01*
X156273500Y-82328627D01*
X156169961Y-82348109D01*
X156074866Y-82409301D01*
X156011071Y-82502668D01*
X155988627Y-82613500D01*
X155988627Y-83985100D01*
X153512573Y-83985100D01*
X153486095Y-83921019D01*
X153157705Y-83592057D01*
X152728425Y-83413804D01*
X152263607Y-83413398D01*
X151834015Y-83590901D01*
X151505053Y-83919291D01*
X151497253Y-83938075D01*
X151497238Y-83938037D01*
X151473484Y-83902486D01*
X151305735Y-83807186D01*
X150530921Y-84582000D01*
X150459079Y-84582000D01*
X149684265Y-83807186D01*
X149516516Y-83902486D01*
X149330959Y-84328661D01*
X149322618Y-84793404D01*
X148247100Y-84793404D01*
X148247100Y-83771265D01*
X149720186Y-83771265D01*
X150495000Y-84546079D01*
X151269814Y-83771265D01*
X151174514Y-83603516D01*
X150748339Y-83417959D01*
X150283596Y-83409618D01*
X149851037Y-83579762D01*
X149815486Y-83603516D01*
X149720186Y-83771265D01*
X148247100Y-83771265D01*
X148247100Y-82207100D01*
X199732900Y-82207100D01*
X199732900Y-105117900D01*
M02*
