G04 #@! TF.FileFunction,Soldermask,Bot*
%FSLAX46Y46*%
G04 Gerber Fmt 4.6, Leading zero omitted, Abs format (unit mm)*
G04 Created by KiCad (PCBNEW 4.0.3-stable) date 10/04/17 18:30:17*
%MOMM*%
%LPD*%
G01*
G04 APERTURE LIST*
%ADD10C,0.152400*%
%ADD11C,0.025400*%
%ADD12C,2.178000*%
%ADD13R,1.150000X1.200000*%
%ADD14R,1.543000X4.083000*%
%ADD15C,1.416000*%
G04 APERTURE END LIST*
D10*
D11*
X200025000Y-81915000D02*
X147955000Y-81915000D01*
X200025000Y-105410000D02*
X200025000Y-81915000D01*
X147955000Y-105410000D02*
X200025000Y-105410000D01*
X147955000Y-81915000D02*
X147955000Y-105410000D01*
D12*
X154851100Y-103733600D03*
X157391100Y-103733600D03*
X159931100Y-103733600D03*
X162471100Y-103733600D03*
X165011100Y-103733600D03*
X167551100Y-103733600D03*
X170091100Y-103733600D03*
X172631100Y-103733600D03*
X175171100Y-103733600D03*
X177711100Y-103733600D03*
X180251100Y-103733600D03*
X182791100Y-103733600D03*
X185331100Y-103733600D03*
X187871100Y-103733600D03*
X190411100Y-103733600D03*
X192951100Y-103733600D03*
X192951100Y-83413600D03*
X190411100Y-83413600D03*
X187871100Y-83413600D03*
X185331100Y-83413600D03*
X182791100Y-83413600D03*
X180251100Y-83413600D03*
X177711100Y-83413600D03*
X175171100Y-83413600D03*
X172631100Y-83413600D03*
X170091100Y-83413600D03*
X167551100Y-83413600D03*
X165011100Y-83413600D03*
D13*
X157480000Y-99834000D03*
X157480000Y-101334000D03*
X159512000Y-99834000D03*
X159512000Y-101334000D03*
X198120000Y-87388000D03*
X198120000Y-88888000D03*
X196088000Y-87388000D03*
X196088000Y-88888000D03*
X157226000Y-90182000D03*
X157226000Y-91682000D03*
X154940000Y-90182000D03*
X154940000Y-91682000D03*
D14*
X156845000Y-84455000D03*
X158844996Y-84455000D03*
X160844992Y-84455000D03*
D15*
X197358000Y-96266000D03*
X196088000Y-96266000D03*
X197358000Y-94996000D03*
X196088000Y-94996000D03*
X197358000Y-93726000D03*
X196088000Y-93726000D03*
X197358000Y-92456000D03*
X196088000Y-92456000D03*
X197358000Y-91186000D03*
X196088000Y-91186000D03*
X151384000Y-96266000D03*
X150114000Y-96266000D03*
X151384000Y-94996000D03*
X150114000Y-94996000D03*
X151384000Y-93726000D03*
X150114000Y-93726000D03*
X151384000Y-92456000D03*
X150114000Y-92456000D03*
X151384000Y-91186000D03*
X150114000Y-91186000D03*
D12*
X150495000Y-84582000D03*
X152494996Y-84582000D03*
M02*
